G04 #@! TF.FileFunction,Copper,L1,Top,Signal*
%FSLAX46Y46*%
G04 Gerber Fmt 4.6, Leading zero omitted, Abs format (unit mm)*
G04 Created by KiCad (PCBNEW no-bzr-product) date 06/20/16 14:38:56*
%MOMM*%
%LPD*%
G01*
G04 APERTURE LIST*
%ADD10C,0.100000*%
%ADD11O,2.500000X1.400000*%
%ADD12C,1.700000*%
%ADD13O,1.500000X3.000000*%
%ADD14O,3.000000X1.500000*%
%ADD15C,2.000000*%
%ADD16O,1.500000X2.500000*%
%ADD17O,1.400000X2.500000*%
%ADD18O,2.000000X3.000000*%
%ADD19C,0.400000*%
G04 APERTURE END LIST*
D10*
D11*
X87022449Y-48392239D03*
X87022449Y-50932239D03*
X87022449Y-53472239D03*
X87022449Y-56012239D03*
X87022449Y-58552239D03*
X87022449Y-61092239D03*
X87022449Y-63632239D03*
X87022449Y-66172239D03*
X87022449Y-68712239D03*
X87022449Y-71252239D03*
X87022449Y-73792239D03*
X87022449Y-76332239D03*
X87022449Y-78872239D03*
X87022449Y-81412239D03*
X94642449Y-81412239D03*
X94642449Y-78872239D03*
X94642449Y-76332239D03*
X94642449Y-73792239D03*
X94642449Y-71252239D03*
X94642449Y-68712239D03*
X94642449Y-66172239D03*
X94642449Y-63632239D03*
X94642449Y-61092239D03*
X94642449Y-58552239D03*
X94642449Y-56012239D03*
X94642449Y-53472239D03*
X94642449Y-50932239D03*
X94642449Y-48392239D03*
D12*
X82804000Y-67790060D03*
X82804000Y-72671940D03*
D13*
X99568000Y-84347000D03*
X102108000Y-84347000D03*
X99568000Y-81007000D03*
X102108000Y-81007000D03*
X104648000Y-84347000D03*
X104648000Y-81007000D03*
X107188000Y-84347000D03*
X107188000Y-81007000D03*
D14*
X74676000Y-55880000D03*
X74676000Y-58420000D03*
X74676000Y-60960000D03*
X74676000Y-63500000D03*
D15*
X72486000Y-47943000D03*
X78486000Y-47943000D03*
X72486000Y-51943000D03*
X78486000Y-51943000D03*
D16*
X92202000Y-85552000D03*
X92202000Y-88692000D03*
X89662000Y-85552000D03*
X89662000Y-88692000D03*
X87122000Y-85552000D03*
X87122000Y-88692000D03*
D14*
X116586000Y-89027000D03*
X116586000Y-86487000D03*
X116586000Y-83947000D03*
X116586000Y-81407000D03*
D13*
X95123000Y-44196000D03*
X92583000Y-44196000D03*
X90043000Y-44196000D03*
X87503000Y-44196000D03*
X84963000Y-44196000D03*
D14*
X74676000Y-78740000D03*
X74676000Y-81280000D03*
X74676000Y-83820000D03*
X74676000Y-86360000D03*
X74676000Y-88900000D03*
X116586000Y-66040000D03*
X116586000Y-63500000D03*
X116586000Y-60960000D03*
X116586000Y-58420000D03*
X116586000Y-55880000D03*
D17*
X81026000Y-52451000D03*
X83566000Y-52451000D03*
D18*
X73406000Y-44323000D03*
X75946000Y-44323000D03*
D12*
X97131226Y-68697080D03*
X104229620Y-67142404D03*
X91186000Y-54483000D03*
X89662000Y-59817000D03*
D19*
X98333307Y-68697080D02*
X97131226Y-68697080D01*
X102674944Y-68697080D02*
X98333307Y-68697080D01*
X104229620Y-67142404D02*
X102674944Y-68697080D01*
X89662000Y-59817000D02*
X89662000Y-56007000D01*
X89662000Y-56007000D02*
X91186000Y-54483000D01*
M02*
