M48
;DRILL file {KiCad no-bzr-product} date 06/20/16 09:11:42
;FORMAT={-:-/ absolute / inch / decimal}
FMAT,2
INCH,TZ
T1C0.031
T2C0.032
T3C0.039
%
G90
G05
M72
T1
X3.19Y-2.065
X3.29Y-2.065
X3.53Y-2.355
X3.59Y-2.145
X3.8241Y-2.7046
X3.92Y-3.205
X3.92Y-3.305
X4.02Y-3.205
X4.02Y-3.305
X4.1035Y-2.6434
X4.12Y-3.205
X4.12Y-3.305
X4.22Y-3.205
X4.22Y-3.305
T2
X3.26Y-2.6689
X3.26Y-2.8611
T3
X2.8538Y-1.8875
X2.8538Y-2.045
X2.89Y-1.745
X2.94Y-2.2
X2.94Y-2.3
X2.94Y-2.4
X2.94Y-2.5
X2.94Y-3.1
X2.94Y-3.2
X2.94Y-3.3
X2.94Y-3.4
X2.94Y-3.5
X2.99Y-1.745
X3.09Y-1.8875
X3.09Y-2.045
X3.345Y-1.74
X3.4261Y-1.9052
X3.4261Y-2.0052
X3.4261Y-2.1052
X3.4261Y-2.2052
X3.4261Y-2.3052
X3.4261Y-2.4052
X3.4261Y-2.5052
X3.4261Y-2.6052
X3.4261Y-2.7052
X3.4261Y-2.8052
X3.4261Y-2.9052
X3.4261Y-3.0052
X3.4261Y-3.1052
X3.4261Y-3.2052
X3.43Y-3.38
X3.43Y-3.48
X3.445Y-1.74
X3.53Y-3.38
X3.53Y-3.48
X3.545Y-1.74
X3.63Y-3.38
X3.63Y-3.48
X3.645Y-1.74
X3.7261Y-1.9052
X3.7261Y-2.0052
X3.7261Y-2.1052
X3.7261Y-2.2052
X3.7261Y-2.3052
X3.7261Y-2.4052
X3.7261Y-2.5052
X3.7261Y-2.6052
X3.7261Y-2.7052
X3.7261Y-2.8052
X3.7261Y-2.9052
X3.7261Y-3.0052
X3.7261Y-3.1052
X3.7261Y-3.2052
X3.745Y-1.74
X4.59Y-2.2
X4.59Y-2.3
X4.59Y-2.4
X4.59Y-2.5
X4.59Y-2.6
X4.59Y-3.205
X4.59Y-3.305
X4.59Y-3.405
X4.59Y-3.505
T0
M30
