G04 #@! TF.FileFunction,Copper,L2,Bot,Signal*
%FSLAX46Y46*%
G04 Gerber Fmt 4.6, Leading zero omitted, Abs format (unit mm)*
G04 Created by KiCad (PCBNEW no-bzr-product) date 06/20/16 14:38:56*
%MOMM*%
%LPD*%
G01*
G04 APERTURE LIST*
%ADD10C,0.100000*%
%ADD11O,2.500000X1.400000*%
%ADD12C,1.700000*%
%ADD13O,1.500000X3.000000*%
%ADD14R,1.700000X2.000000*%
%ADD15R,3.500120X1.800860*%
%ADD16R,3.800000X2.300000*%
%ADD17R,9.550000X10.900000*%
%ADD18O,3.000000X1.500000*%
%ADD19C,2.000000*%
%ADD20O,1.500000X2.500000*%
%ADD21R,1.250000X1.500000*%
%ADD22R,3.657600X2.032000*%
%ADD23R,1.016000X2.032000*%
%ADD24O,1.400000X2.500000*%
%ADD25O,2.000000X3.000000*%
%ADD26R,1.500000X1.250000*%
%ADD27C,0.600000*%
%ADD28C,0.400000*%
%ADD29C,0.800000*%
%ADD30C,0.254000*%
G04 APERTURE END LIST*
D10*
D11*
X87022449Y-48392239D03*
X87022449Y-50932239D03*
X87022449Y-53472239D03*
X87022449Y-56012239D03*
X87022449Y-58552239D03*
X87022449Y-61092239D03*
X87022449Y-63632239D03*
X87022449Y-66172239D03*
X87022449Y-68712239D03*
X87022449Y-71252239D03*
X87022449Y-73792239D03*
X87022449Y-76332239D03*
X87022449Y-78872239D03*
X87022449Y-81412239D03*
X94642449Y-81412239D03*
X94642449Y-78872239D03*
X94642449Y-76332239D03*
X94642449Y-73792239D03*
X94642449Y-71252239D03*
X94642449Y-68712239D03*
X94642449Y-66172239D03*
X94642449Y-63632239D03*
X94642449Y-61092239D03*
X94642449Y-58552239D03*
X94642449Y-56012239D03*
X94642449Y-53472239D03*
X94642449Y-50932239D03*
X94642449Y-48392239D03*
D12*
X82804000Y-67790060D03*
X82804000Y-72671940D03*
D13*
X99568000Y-84347000D03*
X102108000Y-84347000D03*
X99568000Y-81007000D03*
X102108000Y-81007000D03*
X104648000Y-84347000D03*
X104648000Y-81007000D03*
X107188000Y-84347000D03*
X107188000Y-81007000D03*
D14*
X81788000Y-46069000D03*
X81788000Y-42069000D03*
D15*
X117561360Y-40005000D03*
X112562640Y-40005000D03*
D16*
X117856000Y-45339000D03*
X117856000Y-50419000D03*
D17*
X106806000Y-47879000D03*
D18*
X74676000Y-55880000D03*
X74676000Y-58420000D03*
X74676000Y-60960000D03*
X74676000Y-63500000D03*
D19*
X72486000Y-47943000D03*
X78486000Y-47943000D03*
X72486000Y-51943000D03*
X78486000Y-51943000D03*
D20*
X92202000Y-85552000D03*
X92202000Y-88692000D03*
X89662000Y-85552000D03*
X89662000Y-88692000D03*
X87122000Y-85552000D03*
X87122000Y-88692000D03*
D21*
X97282000Y-83927000D03*
X97282000Y-81427000D03*
D18*
X116586000Y-89027000D03*
X116586000Y-86487000D03*
X116586000Y-83947000D03*
X116586000Y-81407000D03*
D21*
X90170000Y-70592000D03*
X90170000Y-68092000D03*
D13*
X95123000Y-44196000D03*
X92583000Y-44196000D03*
X90043000Y-44196000D03*
X87503000Y-44196000D03*
X84963000Y-44196000D03*
D18*
X74676000Y-78740000D03*
X74676000Y-81280000D03*
X74676000Y-83820000D03*
X74676000Y-86360000D03*
X74676000Y-88900000D03*
X116586000Y-66040000D03*
X116586000Y-63500000D03*
X116586000Y-60960000D03*
X116586000Y-58420000D03*
X116586000Y-55880000D03*
D22*
X115570000Y-70231000D03*
D23*
X115570000Y-76835000D03*
X113284000Y-76835000D03*
X117856000Y-76835000D03*
D24*
X81026000Y-52451000D03*
X83566000Y-52451000D03*
D25*
X73406000Y-44323000D03*
X75946000Y-44323000D03*
D21*
X89662000Y-62885000D03*
X89662000Y-65385000D03*
D14*
X82296000Y-61817000D03*
X82296000Y-57817000D03*
D26*
X83526000Y-70231000D03*
X81026000Y-70231000D03*
X83546000Y-74803000D03*
X81046000Y-74803000D03*
D12*
X97131226Y-68697080D03*
X104229620Y-67142404D03*
X91186000Y-54483000D03*
X89662000Y-59817000D03*
D27*
X117856000Y-50419000D02*
X118554590Y-50419000D01*
X118554590Y-50419000D02*
X119854159Y-51718569D01*
X119854159Y-51718569D02*
X119854159Y-54483000D01*
X119854159Y-54483000D02*
X119854159Y-73787000D01*
X116586000Y-86487000D02*
X115836000Y-86487000D01*
X115836000Y-86487000D02*
X108716942Y-93606058D01*
X69264557Y-92266900D02*
X69264557Y-60919727D01*
X108716942Y-93606058D02*
X70603715Y-93606058D01*
X70603715Y-93606058D02*
X69264557Y-92266900D01*
X69264557Y-60919727D02*
X71764284Y-58420000D01*
X71764284Y-58420000D02*
X74676000Y-58420000D01*
X119854159Y-73787000D02*
X119854159Y-85490119D01*
X119854159Y-85490119D02*
X118857278Y-86487000D01*
X118857278Y-86487000D02*
X116586000Y-86487000D01*
X113284000Y-76835000D02*
X113284000Y-75219000D01*
X113284000Y-75219000D02*
X114716000Y-73787000D01*
X114716000Y-73787000D02*
X119854159Y-73787000D01*
X84963000Y-44196000D02*
X84963000Y-46296000D01*
X84963000Y-46296000D02*
X84896691Y-46362309D01*
X84896691Y-46362309D02*
X84896691Y-48392239D01*
D28*
X82296000Y-57817000D02*
X80691913Y-57817000D01*
X77246407Y-70480116D02*
X71756907Y-75969616D01*
X80691913Y-57817000D02*
X79196330Y-59312583D01*
X79196330Y-59312583D02*
X79196330Y-62238080D01*
X79196330Y-62238080D02*
X77246407Y-64188003D01*
X77246407Y-64188003D02*
X77246407Y-70480116D01*
X71756907Y-75969616D02*
X71756907Y-89951966D01*
X71756907Y-89951966D02*
X72964828Y-91159887D01*
X72964828Y-91159887D02*
X81814113Y-91159887D01*
X81814113Y-91159887D02*
X87122000Y-85852000D01*
X82296000Y-57817000D02*
X82296000Y-55245000D01*
X82296000Y-55245000D02*
X82296000Y-49949930D01*
X78486000Y-51943000D02*
X78486000Y-53357213D01*
X78486000Y-53357213D02*
X80373787Y-55245000D01*
X80373787Y-55245000D02*
X82296000Y-55245000D01*
X82296000Y-49949930D02*
X83853691Y-48392239D01*
X83853691Y-48392239D02*
X84896691Y-48392239D01*
X84963000Y-44196000D02*
X84896691Y-44262309D01*
X84896691Y-48392239D02*
X87022449Y-48392239D01*
X86614000Y-85852000D02*
X86614000Y-85125591D01*
D27*
X90123187Y-64923813D02*
X91440000Y-64923813D01*
X91440000Y-64923813D02*
X92319940Y-64923813D01*
D28*
X91322093Y-59146062D02*
X91322093Y-64805906D01*
X91322093Y-64805906D02*
X91440000Y-64923813D01*
D27*
X89662000Y-65385000D02*
X90123187Y-64923813D01*
X92319940Y-64923813D02*
X93611514Y-63632239D01*
X93611514Y-63632239D02*
X94642449Y-63632239D01*
X89662000Y-65385000D02*
X89662000Y-67584000D01*
X89662000Y-67584000D02*
X90170000Y-68092000D01*
X87022449Y-66172239D02*
X88874761Y-66172239D01*
X88874761Y-66172239D02*
X89662000Y-65385000D01*
X78486000Y-47943000D02*
X77071787Y-47943000D01*
X77071787Y-47943000D02*
X77007787Y-47879000D01*
X77007787Y-47879000D02*
X75946000Y-47879000D01*
X81046000Y-74803000D02*
X80735513Y-74492513D01*
X80735513Y-74492513D02*
X80735513Y-70521487D01*
X80735513Y-70521487D02*
X81026000Y-70231000D01*
X87022449Y-66172239D02*
X86629633Y-65779423D01*
X86629633Y-65779423D02*
X82115198Y-65779423D01*
X82115198Y-65779423D02*
X80800227Y-67094394D01*
X80800227Y-67094394D02*
X80800227Y-70005227D01*
X80800227Y-70005227D02*
X81026000Y-70231000D01*
X86106000Y-92342399D02*
X71837757Y-92342399D01*
X70507744Y-91012386D02*
X70507744Y-67994667D01*
X71837757Y-92342399D02*
X70507744Y-91012386D01*
X70507744Y-67994667D02*
X74676000Y-63826411D01*
X74676000Y-63826411D02*
X74676000Y-63500000D01*
X116586000Y-83947000D02*
X115955430Y-83947000D01*
X115955430Y-83947000D02*
X109075403Y-90827027D01*
X109075403Y-90827027D02*
X97304027Y-90827027D01*
X97304027Y-90827027D02*
X97282000Y-90805000D01*
X86106000Y-92342399D02*
X87897399Y-92342399D01*
X86995000Y-88392000D02*
X86106000Y-89281000D01*
X86106000Y-89281000D02*
X86106000Y-92342399D01*
X87122000Y-88392000D02*
X86995000Y-88392000D01*
X97282000Y-91678647D02*
X97282000Y-90805000D01*
X97282000Y-90805000D02*
X97282000Y-85277000D01*
X87897399Y-92342399D02*
X87910798Y-92329000D01*
X96631647Y-92329000D02*
X97282000Y-91678647D01*
X87910798Y-92329000D02*
X96631647Y-92329000D01*
X97282000Y-85277000D02*
X97282000Y-83927000D01*
D28*
X91322093Y-59146062D02*
X89388280Y-57212249D01*
X89388280Y-57212249D02*
X85533249Y-57212249D01*
X85533249Y-57212249D02*
X84864303Y-56543303D01*
X84864303Y-56543303D02*
X84864303Y-50223121D01*
X84864303Y-50223121D02*
X85495175Y-49592249D01*
X85495175Y-49592249D02*
X89042273Y-49592249D01*
X89042273Y-49592249D02*
X89042273Y-47065000D01*
X89042273Y-47065000D02*
X87503000Y-45525727D01*
X87503000Y-45525727D02*
X87503000Y-44196000D01*
X116586000Y-83947000D02*
X115836000Y-83947000D01*
D27*
X75946000Y-44323000D02*
X75946000Y-42788411D01*
X75946000Y-42788411D02*
X77650064Y-41084347D01*
X77650064Y-41084347D02*
X81788000Y-41084347D01*
X75946000Y-44323000D02*
X75946000Y-47879000D01*
X75946000Y-47879000D02*
X75946000Y-53064705D01*
D28*
X76010000Y-47943000D02*
X75946000Y-47879000D01*
D27*
X75946000Y-53064705D02*
X77755026Y-54873731D01*
X77755026Y-54873731D02*
X77755026Y-59575891D01*
X77755026Y-59575891D02*
X76370917Y-60960000D01*
X76370917Y-60960000D02*
X74676000Y-60960000D01*
X81788000Y-41084347D02*
X84284793Y-41084347D01*
D28*
X81788000Y-42069000D02*
X81788000Y-41084347D01*
D27*
X87630000Y-41084347D02*
X100686347Y-41084347D01*
X100686347Y-41084347D02*
X106806000Y-47204000D01*
X106806000Y-47204000D02*
X106806000Y-47879000D01*
X74676000Y-60960000D02*
X74676000Y-63500000D01*
D28*
X86535695Y-65685485D02*
X87022449Y-66172239D01*
D27*
X99568000Y-83947000D02*
X97302000Y-83947000D01*
X97302000Y-83947000D02*
X97282000Y-83927000D01*
X87503000Y-44196000D02*
X87630000Y-44069000D01*
X87630000Y-44069000D02*
X87630000Y-41969000D01*
X87630000Y-41969000D02*
X87630000Y-41084347D01*
X84284793Y-41084347D02*
X87630000Y-41084347D01*
X116586000Y-81407000D02*
X116586000Y-83947000D01*
X116586000Y-81407000D02*
X117856000Y-80137000D01*
X117856000Y-80137000D02*
X117856000Y-76835000D01*
D28*
X87122000Y-88392000D02*
X87122000Y-89535000D01*
X99548000Y-83927000D02*
X99568000Y-83947000D01*
X75692000Y-44577000D02*
X75946000Y-44323000D01*
D27*
X94974866Y-63299822D02*
X95113870Y-63438826D01*
D28*
X94642449Y-63632239D02*
X94974866Y-63299822D01*
X86920688Y-66274000D02*
X87022449Y-66172239D01*
X87022449Y-66172239D02*
X87030973Y-66180763D01*
X102108000Y-83947000D02*
X102108000Y-86168487D01*
X102108000Y-86168487D02*
X103612818Y-87673305D01*
X100711000Y-69977000D02*
X100711000Y-64041996D01*
X100711000Y-64041996D02*
X97761243Y-61092239D01*
X97761243Y-61092239D02*
X94642449Y-61092239D01*
X103612818Y-87673305D02*
X108682978Y-87673305D01*
X108682978Y-87673305D02*
X111079413Y-85276870D01*
X111079413Y-85276870D02*
X111079413Y-77870661D01*
X111079413Y-77870661D02*
X103820752Y-70612000D01*
X103820752Y-70612000D02*
X101346000Y-70612000D01*
X101346000Y-70612000D02*
X100711000Y-69977000D01*
X94642449Y-81412239D02*
X94819415Y-81412239D01*
X94819415Y-81412239D02*
X97224664Y-79006990D01*
X97224664Y-79006990D02*
X101093857Y-79006990D01*
X101093857Y-79006990D02*
X102108000Y-80021133D01*
X102108000Y-80021133D02*
X102108000Y-81407000D01*
X94642449Y-81412239D02*
X94092449Y-81412239D01*
X89662000Y-85852000D02*
X88392000Y-87122000D01*
X88392000Y-87122000D02*
X88392000Y-90333517D01*
X88392000Y-90333517D02*
X89461431Y-91402948D01*
X89461431Y-91402948D02*
X94652052Y-91402948D01*
X94652052Y-91402948D02*
X94996000Y-91059000D01*
X94996000Y-91059000D02*
X94996000Y-84012860D01*
X94996000Y-84012860D02*
X92441794Y-81458654D01*
X93670618Y-77597000D02*
X101215781Y-77597000D01*
X101215781Y-77597000D02*
X103397990Y-79779209D01*
X92441794Y-81458654D02*
X92441794Y-78825824D01*
X92441794Y-78825824D02*
X93670618Y-77597000D01*
X103397990Y-79779209D02*
X103397990Y-82696990D01*
X103397990Y-82696990D02*
X104648000Y-83947000D01*
X89662000Y-85852000D02*
X88908676Y-85098676D01*
X88908676Y-85098676D02*
X88908676Y-74545446D01*
X88908676Y-74545446D02*
X92201883Y-71252239D01*
X92201883Y-71252239D02*
X94642449Y-71252239D01*
X89662000Y-85852000D02*
X89535000Y-85852000D01*
X104648000Y-83947000D02*
X104648000Y-84324781D01*
X89662000Y-88392000D02*
X89662000Y-89445395D01*
X89662000Y-89445395D02*
X90819350Y-90602745D01*
X90819350Y-90602745D02*
X93235368Y-90602745D01*
X93235368Y-90602745D02*
X93840851Y-89997262D01*
X93840851Y-89997262D02*
X93840851Y-84126098D01*
X93840851Y-84126098D02*
X91666195Y-81951442D01*
X91666195Y-81951442D02*
X91666195Y-78016089D01*
X91666195Y-78016089D02*
X93350045Y-76332239D01*
X93350045Y-76332239D02*
X94642449Y-76332239D01*
X104648000Y-81407000D02*
X104648000Y-78142096D01*
X104648000Y-78142096D02*
X102838143Y-76332239D01*
X102838143Y-76332239D02*
X94642449Y-76332239D01*
X94642449Y-76332239D02*
X95192449Y-76332239D01*
X94662920Y-76311768D02*
X94642449Y-76332239D01*
X89468113Y-88392000D02*
X89154000Y-88392000D01*
X94642449Y-73792239D02*
X95190785Y-74340575D01*
X95190785Y-74340575D02*
X103722747Y-74340575D01*
X103722747Y-74340575D02*
X108858862Y-79476690D01*
X108858862Y-79476690D02*
X108858862Y-83098630D01*
X108858862Y-83098630D02*
X108010492Y-83947000D01*
X108010492Y-83947000D02*
X107188000Y-83947000D01*
X92202000Y-85852000D02*
X92202000Y-83892496D01*
X92202000Y-83892496D02*
X90761050Y-82451546D01*
X90761050Y-82451546D02*
X90761050Y-77123638D01*
X90761050Y-77123638D02*
X94092449Y-73792239D01*
X94092449Y-73792239D02*
X94642449Y-73792239D01*
X107188000Y-81407000D02*
X105937990Y-82657010D01*
X105937990Y-82657010D02*
X105937990Y-85999164D01*
X105937990Y-85999164D02*
X106557757Y-86618931D01*
X106557757Y-86618931D02*
X108072069Y-86618931D01*
X108072069Y-86618931D02*
X109895305Y-84795695D01*
X109895305Y-84795695D02*
X109895305Y-78590343D01*
X109895305Y-78590343D02*
X103691679Y-72386717D01*
X103691679Y-72386717D02*
X100453717Y-72386717D01*
X100453717Y-72386717D02*
X99138913Y-71071913D01*
X99138913Y-71071913D02*
X99138913Y-65367686D01*
X99138913Y-65367686D02*
X96203456Y-62432229D01*
X96203456Y-62432229D02*
X93124897Y-62432229D01*
X93124897Y-62432229D02*
X92564304Y-61871636D01*
X92564304Y-61871636D02*
X92564304Y-59055000D01*
X92564304Y-59055000D02*
X89521543Y-56012239D01*
X89521543Y-56012239D02*
X87022449Y-56012239D01*
X90043000Y-44196000D02*
X90043000Y-50499064D01*
X90043000Y-50499064D02*
X89609825Y-50932239D01*
X89609825Y-50932239D02*
X87022449Y-50932239D01*
X87022449Y-53472239D02*
X89455892Y-53472239D01*
X89455892Y-53472239D02*
X91232614Y-51695517D01*
X91232614Y-51695517D02*
X91232614Y-46793509D01*
X91232614Y-46793509D02*
X92583000Y-45443123D01*
X92583000Y-45443123D02*
X92583000Y-44196000D01*
D27*
X83526000Y-70231000D02*
X83526000Y-68912418D01*
X83526000Y-68912418D02*
X83726179Y-68712239D01*
X87022449Y-68712239D02*
X83726179Y-68712239D01*
X83726179Y-68712239D02*
X82804000Y-67790060D01*
D28*
X87022449Y-68712239D02*
X86372449Y-68712239D01*
D27*
X82804000Y-72671940D02*
X83387423Y-72088517D01*
X83387423Y-72088517D02*
X86186171Y-72088517D01*
X86186171Y-72088517D02*
X87022449Y-71252239D01*
X82804000Y-72671940D02*
X82804000Y-74061000D01*
X82804000Y-74061000D02*
X83546000Y-74803000D01*
D28*
X86187223Y-71252239D02*
X87022449Y-71252239D01*
X87022449Y-71252239D02*
X86372449Y-71252239D01*
D27*
X90170000Y-70592000D02*
X90949086Y-70592000D01*
X90949086Y-70592000D02*
X92159950Y-69381136D01*
X92159950Y-69381136D02*
X92159950Y-67363005D01*
X92159950Y-67363005D02*
X93350716Y-66172239D01*
X93350716Y-66172239D02*
X94642449Y-66172239D01*
X95013771Y-65800917D02*
X95089319Y-65876465D01*
D28*
X94642449Y-66172239D02*
X95013771Y-65800917D01*
D27*
X87022449Y-63632239D02*
X87400032Y-63254656D01*
X87400032Y-63254656D02*
X89292344Y-63254656D01*
X89292344Y-63254656D02*
X89662000Y-62885000D01*
X91186000Y-54483000D02*
X92395545Y-54483000D01*
X89662000Y-59817000D02*
X89662000Y-62885000D01*
X87022449Y-63632239D02*
X84111239Y-63632239D01*
X84111239Y-63632239D02*
X82296000Y-61817000D01*
X94642449Y-68712239D02*
X97116067Y-68712239D01*
X97116067Y-68712239D02*
X97131226Y-68697080D01*
D28*
X95123000Y-44196000D02*
X95123000Y-44946000D01*
X95123000Y-44946000D02*
X92395545Y-47673455D01*
X92395545Y-47673455D02*
X92395545Y-54483000D01*
X99568000Y-81407000D02*
X100857990Y-82696990D01*
X100857990Y-82696990D02*
X100857990Y-87501400D01*
X100857990Y-87501400D02*
X102221878Y-88865288D01*
X102221878Y-88865288D02*
X109171404Y-88865288D01*
X109171404Y-88865288D02*
X112192202Y-85844490D01*
X112192202Y-85844490D02*
X112192202Y-79375000D01*
X112192202Y-79375000D02*
X114654977Y-79375000D01*
X114654977Y-79375000D02*
X115570000Y-78459977D01*
X115570000Y-78459977D02*
X115570000Y-76835000D01*
X112192202Y-79375000D02*
X112192202Y-69068452D01*
X104272041Y-67184825D02*
X104229620Y-67142404D01*
X118823899Y-65501049D02*
X118073569Y-64750719D01*
X118073569Y-64750719D02*
X109348921Y-64750719D01*
X112192202Y-69068452D02*
X113315654Y-67945000D01*
X113315654Y-67945000D02*
X118208127Y-67945000D01*
X118208127Y-67945000D02*
X118823899Y-67329228D01*
X118823899Y-67329228D02*
X118823899Y-65501049D01*
X109348921Y-64750719D02*
X106914815Y-67184825D01*
X106914815Y-67184825D02*
X104272041Y-67184825D01*
X97131226Y-68697080D02*
X97167594Y-68697080D01*
X97167594Y-68697080D02*
X97758427Y-69287913D01*
X97758427Y-69287913D02*
X97758427Y-71586885D01*
X90951990Y-87141990D02*
X92202000Y-88392000D01*
X97758427Y-71586885D02*
X96893063Y-72452249D01*
X96893063Y-72452249D02*
X93028751Y-72452249D01*
X93028751Y-72452249D02*
X89834863Y-75646137D01*
X89834863Y-75646137D02*
X89834863Y-83010452D01*
X89834863Y-83010452D02*
X90951990Y-84127579D01*
X90951990Y-84127579D02*
X90951990Y-87141990D01*
X97718001Y-68697080D02*
X97131226Y-68697080D01*
X97758427Y-68656654D02*
X97718001Y-68697080D01*
X92395545Y-54483000D02*
X92395545Y-56327545D01*
X92395545Y-56327545D02*
X93280249Y-57212249D01*
X93280249Y-57212249D02*
X97199133Y-57212249D01*
X97199133Y-57212249D02*
X104229620Y-64242736D01*
X104229620Y-64242736D02*
X104229620Y-65940323D01*
X104229620Y-65940323D02*
X104229620Y-67142404D01*
D27*
X97282000Y-81427000D02*
X99548000Y-81427000D01*
X99548000Y-81427000D02*
X99568000Y-81407000D01*
D28*
X83566000Y-52451000D02*
X83950263Y-52835263D01*
X83950263Y-52835263D02*
X83950263Y-57820738D01*
X83950263Y-57820738D02*
X84681764Y-58552239D01*
X84681764Y-58552239D02*
X87022449Y-58552239D01*
X86478610Y-58552239D02*
X87022449Y-58552239D01*
D27*
X81026000Y-52451000D02*
X81026000Y-46831000D01*
X81026000Y-46831000D02*
X81788000Y-46069000D01*
D28*
X74676000Y-78740000D02*
X74676000Y-77893526D01*
X74676000Y-77893526D02*
X78675683Y-73893843D01*
X78675683Y-73893843D02*
X78675683Y-65172423D01*
X78675683Y-65172423D02*
X80307284Y-63540822D01*
X80307284Y-63540822D02*
X80307284Y-61055714D01*
X80307284Y-61055714D02*
X81370759Y-59992239D01*
X81370759Y-59992239D02*
X85372449Y-59992239D01*
X85372449Y-59992239D02*
X86472449Y-61092239D01*
X86472449Y-61092239D02*
X87022449Y-61092239D01*
X87022449Y-73792239D02*
X86472449Y-73792239D01*
X86472449Y-73792239D02*
X85081902Y-75182786D01*
X85081902Y-75182786D02*
X85081902Y-75630504D01*
X85081902Y-75630504D02*
X79432406Y-81280000D01*
X79432406Y-81280000D02*
X74676000Y-81280000D01*
X74676000Y-83820000D02*
X78826693Y-83820000D01*
X78826693Y-83820000D02*
X86314454Y-76332239D01*
X86314454Y-76332239D02*
X87022449Y-76332239D01*
X86372449Y-76332239D02*
X87022449Y-76332239D01*
X74676000Y-86360000D02*
X78933980Y-86360000D01*
X78933980Y-86360000D02*
X86421741Y-78872239D01*
X86421741Y-78872239D02*
X87022449Y-78872239D01*
X86372449Y-78872239D02*
X87022449Y-78872239D01*
X74676000Y-88900000D02*
X79725254Y-88900000D01*
X79725254Y-88900000D02*
X87022449Y-81602805D01*
X87022449Y-81602805D02*
X87022449Y-81412239D01*
X94642449Y-58552239D02*
X97084194Y-58552239D01*
X97084194Y-58552239D02*
X101903218Y-63371263D01*
X101903218Y-63371263D02*
X101903218Y-68248218D01*
X101903218Y-68248218D02*
X102870000Y-69215000D01*
X107315000Y-69215000D02*
X110490000Y-66040000D01*
X102870000Y-69215000D02*
X107315000Y-69215000D01*
X110490000Y-66040000D02*
X114686000Y-66040000D01*
X114686000Y-66040000D02*
X116586000Y-66040000D01*
X94642449Y-58552239D02*
X94680444Y-58514244D01*
X94642449Y-56012239D02*
X97576803Y-56012239D01*
X97576803Y-56012239D02*
X105064564Y-63500000D01*
X105064564Y-63500000D02*
X114686000Y-63500000D01*
X114686000Y-63500000D02*
X116586000Y-63500000D01*
X94642449Y-53472239D02*
X96552206Y-53472239D01*
X96552206Y-53472239D02*
X104166967Y-61087000D01*
X104166967Y-61087000D02*
X112704083Y-61087000D01*
X112704083Y-61087000D02*
X112831083Y-60960000D01*
X112831083Y-60960000D02*
X114686000Y-60960000D01*
X114686000Y-60960000D02*
X116586000Y-60960000D01*
X94642449Y-50932239D02*
X95697386Y-50932239D01*
X95697386Y-50932239D02*
X103185147Y-58420000D01*
X103185147Y-58420000D02*
X114686000Y-58420000D01*
X114686000Y-58420000D02*
X116586000Y-58420000D01*
X94642449Y-48392239D02*
X94730902Y-48392239D01*
X94730902Y-48392239D02*
X103385351Y-57046688D01*
X103385351Y-57046688D02*
X114669312Y-57046688D01*
X114669312Y-57046688D02*
X115836000Y-55880000D01*
X115836000Y-55880000D02*
X116586000Y-55880000D01*
D29*
X117561360Y-40005000D02*
X117561360Y-45044360D01*
X117561360Y-45044360D02*
X117856000Y-45339000D01*
X112562640Y-40005000D02*
X112562640Y-38304570D01*
X112562640Y-38304570D02*
X112522000Y-38263930D01*
X112522000Y-38263930D02*
X112522000Y-37778738D01*
D27*
X73406000Y-44323000D02*
X73406000Y-40622964D01*
X73406000Y-40622964D02*
X76250226Y-37778738D01*
X76250226Y-37778738D02*
X82189272Y-37778738D01*
X82189272Y-37778738D02*
X112522000Y-37778738D01*
X73406000Y-44323000D02*
X71806000Y-44323000D01*
X71806000Y-44323000D02*
X69850000Y-46279000D01*
X69850000Y-46279000D02*
X69850000Y-54651129D01*
X69850000Y-54651129D02*
X71078871Y-55880000D01*
X71078871Y-55880000D02*
X74676000Y-55880000D01*
X120228606Y-37778738D02*
X112522000Y-37778738D01*
X121311509Y-87151292D02*
X121311509Y-46355000D01*
X121311509Y-46355000D02*
X121311509Y-38861641D01*
X116586000Y-89027000D02*
X119435801Y-89027000D01*
X121311509Y-38861641D02*
X120228606Y-37778738D01*
X119435801Y-89027000D02*
X121311509Y-87151292D01*
D28*
X73406000Y-44323000D02*
X73403875Y-44325125D01*
D30*
G36*
X110127762Y-38820909D02*
X110071338Y-39104570D01*
X110071338Y-40905430D01*
X110127762Y-41189091D01*
X110288443Y-41429567D01*
X110528919Y-41590248D01*
X110812580Y-41646672D01*
X114312700Y-41646672D01*
X114596361Y-41590248D01*
X114836837Y-41429567D01*
X114997518Y-41189091D01*
X115053942Y-40905430D01*
X115053942Y-39104570D01*
X114997518Y-38820909D01*
X114987381Y-38805738D01*
X115136619Y-38805738D01*
X115126482Y-38820909D01*
X115070058Y-39104570D01*
X115070058Y-40905430D01*
X115126482Y-41189091D01*
X115287163Y-41429567D01*
X115527639Y-41590248D01*
X115811300Y-41646672D01*
X116434360Y-41646672D01*
X116434360Y-43447758D01*
X115956000Y-43447758D01*
X115672339Y-43504182D01*
X115431863Y-43664863D01*
X115271182Y-43905339D01*
X115214758Y-44189000D01*
X115214758Y-46489000D01*
X115271182Y-46772661D01*
X115431863Y-47013137D01*
X115672339Y-47173818D01*
X115956000Y-47230242D01*
X119756000Y-47230242D01*
X120039661Y-47173818D01*
X120280137Y-47013137D01*
X120284509Y-47006594D01*
X120284509Y-48751406D01*
X120280137Y-48744863D01*
X120039661Y-48584182D01*
X119756000Y-48527758D01*
X115956000Y-48527758D01*
X115672339Y-48584182D01*
X115431863Y-48744863D01*
X115271182Y-48985339D01*
X115214758Y-49269000D01*
X115214758Y-51569000D01*
X115271182Y-51852661D01*
X115431863Y-52093137D01*
X115672339Y-52253818D01*
X115956000Y-52310242D01*
X118827159Y-52310242D01*
X118827159Y-55731839D01*
X118744200Y-55314777D01*
X118424027Y-54835603D01*
X117944853Y-54515430D01*
X117379630Y-54403000D01*
X115792370Y-54403000D01*
X115227147Y-54515430D01*
X114747973Y-54835603D01*
X114427800Y-55314777D01*
X114315370Y-55880000D01*
X114350154Y-56054870D01*
X114285336Y-56119688D01*
X103769327Y-56119688D01*
X96555930Y-48906291D01*
X96658181Y-48392239D01*
X96612931Y-48164750D01*
X101396000Y-48164750D01*
X101396000Y-53455310D01*
X101492673Y-53688699D01*
X101671302Y-53867327D01*
X101904691Y-53964000D01*
X106520250Y-53964000D01*
X106679000Y-53805250D01*
X106679000Y-48006000D01*
X106933000Y-48006000D01*
X106933000Y-53805250D01*
X107091750Y-53964000D01*
X111707309Y-53964000D01*
X111940698Y-53867327D01*
X112119327Y-53688699D01*
X112216000Y-53455310D01*
X112216000Y-48164750D01*
X112057250Y-48006000D01*
X106933000Y-48006000D01*
X106679000Y-48006000D01*
X101554750Y-48006000D01*
X101396000Y-48164750D01*
X96612931Y-48164750D01*
X96549557Y-47846150D01*
X96240222Y-47383198D01*
X95777270Y-47073863D01*
X95231181Y-46965239D01*
X94414737Y-46965239D01*
X94948130Y-46431846D01*
X95123000Y-46466630D01*
X95688223Y-46354200D01*
X96167397Y-46034027D01*
X96487570Y-45554853D01*
X96600000Y-44989630D01*
X96600000Y-43402370D01*
X96487570Y-42837147D01*
X96167397Y-42357973D01*
X96084660Y-42302690D01*
X101396000Y-42302690D01*
X101396000Y-47593250D01*
X101554750Y-47752000D01*
X106679000Y-47752000D01*
X106679000Y-41952750D01*
X106933000Y-41952750D01*
X106933000Y-47752000D01*
X112057250Y-47752000D01*
X112216000Y-47593250D01*
X112216000Y-42302690D01*
X112119327Y-42069301D01*
X111940698Y-41890673D01*
X111707309Y-41794000D01*
X107091750Y-41794000D01*
X106933000Y-41952750D01*
X106679000Y-41952750D01*
X106520250Y-41794000D01*
X101904691Y-41794000D01*
X101671302Y-41890673D01*
X101492673Y-42069301D01*
X101396000Y-42302690D01*
X96084660Y-42302690D01*
X95688223Y-42037800D01*
X95123000Y-41925370D01*
X94557777Y-42037800D01*
X94078603Y-42357973D01*
X93853000Y-42695613D01*
X93627397Y-42357973D01*
X93148223Y-42037800D01*
X92583000Y-41925370D01*
X92017777Y-42037800D01*
X91538603Y-42357973D01*
X91313000Y-42695613D01*
X91087397Y-42357973D01*
X90608223Y-42037800D01*
X90043000Y-41925370D01*
X89477777Y-42037800D01*
X88998603Y-42357973D01*
X88717636Y-42778470D01*
X88392540Y-42376855D01*
X87915684Y-42117827D01*
X87844185Y-42103682D01*
X87630000Y-42226344D01*
X87630000Y-44069000D01*
X87650000Y-44069000D01*
X87650000Y-44323000D01*
X87630000Y-44323000D01*
X87630000Y-46165656D01*
X87844185Y-46288318D01*
X87915684Y-46274173D01*
X88392540Y-46015145D01*
X88717636Y-45613530D01*
X88998603Y-46034027D01*
X89116000Y-46112469D01*
X89116000Y-50005239D01*
X88675040Y-50005239D01*
X88620222Y-49923198D01*
X88229670Y-49662239D01*
X88620222Y-49401280D01*
X88929557Y-48938328D01*
X89038181Y-48392239D01*
X88929557Y-47846150D01*
X88620222Y-47383198D01*
X88157270Y-47073863D01*
X87611181Y-46965239D01*
X86433717Y-46965239D01*
X85923691Y-47066690D01*
X85923691Y-46629357D01*
X85990000Y-46296000D01*
X85990000Y-46045651D01*
X86007397Y-46034027D01*
X86288364Y-45613530D01*
X86613460Y-46015145D01*
X87090316Y-46274173D01*
X87161815Y-46288318D01*
X87376000Y-46165656D01*
X87376000Y-44323000D01*
X87356000Y-44323000D01*
X87356000Y-44069000D01*
X87376000Y-44069000D01*
X87376000Y-42226344D01*
X87161815Y-42103682D01*
X87090316Y-42117827D01*
X86613460Y-42376855D01*
X86288364Y-42778470D01*
X86007397Y-42357973D01*
X85528223Y-42037800D01*
X84963000Y-41925370D01*
X84397777Y-42037800D01*
X83918603Y-42357973D01*
X83598430Y-42837147D01*
X83486000Y-43402370D01*
X83486000Y-44989630D01*
X83598430Y-45554853D01*
X83918603Y-46034027D01*
X83933068Y-46043692D01*
X83869691Y-46362309D01*
X83869691Y-47465239D01*
X83853691Y-47465239D01*
X83498944Y-47535802D01*
X83198203Y-47736751D01*
X82053000Y-48881954D01*
X82053000Y-47810242D01*
X82638000Y-47810242D01*
X82921661Y-47753818D01*
X83162137Y-47593137D01*
X83322818Y-47352661D01*
X83379242Y-47069000D01*
X83379242Y-45069000D01*
X83322818Y-44785339D01*
X83162137Y-44544863D01*
X82921661Y-44384182D01*
X82638000Y-44327758D01*
X80938000Y-44327758D01*
X80654339Y-44384182D01*
X80413863Y-44544863D01*
X80253182Y-44785339D01*
X80196758Y-45069000D01*
X80196758Y-46259016D01*
X80077176Y-46437984D01*
X79999000Y-46831000D01*
X79999000Y-47294738D01*
X79905387Y-47068736D01*
X79638532Y-46970073D01*
X78665605Y-47943000D01*
X79638532Y-48915927D01*
X79905387Y-48817264D01*
X79999000Y-48565287D01*
X79999000Y-50880105D01*
X79945342Y-50960410D01*
X79465544Y-50479774D01*
X78831029Y-50216300D01*
X78143986Y-50215701D01*
X77509011Y-50478067D01*
X77022774Y-50963456D01*
X76759300Y-51597971D01*
X76758701Y-52285014D01*
X77021067Y-52919989D01*
X77506456Y-53406226D01*
X77574358Y-53434421D01*
X77629564Y-53711961D01*
X77797971Y-53964000D01*
X77830512Y-54012701D01*
X79718299Y-55900488D01*
X80019039Y-56101436D01*
X80373787Y-56172000D01*
X81102747Y-56172000D01*
X80921863Y-56292863D01*
X80761182Y-56533339D01*
X80704758Y-56817000D01*
X80704758Y-56890000D01*
X80691913Y-56890000D01*
X80337166Y-56960563D01*
X80036425Y-57161512D01*
X78540842Y-58657095D01*
X78339894Y-58957835D01*
X78269330Y-59312583D01*
X78269330Y-61854104D01*
X76750436Y-63372998D01*
X76645657Y-63372998D01*
X76768318Y-63158815D01*
X76754173Y-63087316D01*
X76495145Y-62610460D01*
X76073349Y-62269028D01*
X75941502Y-62230000D01*
X76073349Y-62190972D01*
X76495145Y-61849540D01*
X76754173Y-61372684D01*
X76768318Y-61301185D01*
X76645656Y-61087000D01*
X74803000Y-61087000D01*
X74803000Y-63373000D01*
X74823000Y-63373000D01*
X74823000Y-63627000D01*
X74803000Y-63627000D01*
X74803000Y-64885000D01*
X75553000Y-64885000D01*
X76073349Y-64730972D01*
X76319407Y-64531795D01*
X76319407Y-70096140D01*
X71101419Y-75314128D01*
X70900471Y-75614868D01*
X70829907Y-75969616D01*
X70829907Y-89951966D01*
X70900471Y-90306714D01*
X70970591Y-90411656D01*
X71101419Y-90607454D01*
X72309340Y-91815375D01*
X72610080Y-92016323D01*
X72964828Y-92086887D01*
X81814113Y-92086887D01*
X82168861Y-92016323D01*
X82469601Y-91815375D01*
X85465976Y-88819000D01*
X85737000Y-88819000D01*
X85737000Y-89319000D01*
X85891028Y-89839349D01*
X86232460Y-90261145D01*
X86709316Y-90520173D01*
X86780815Y-90534318D01*
X86995000Y-90411656D01*
X86995000Y-88819000D01*
X85737000Y-88819000D01*
X85465976Y-88819000D01*
X85737000Y-88547976D01*
X85737000Y-88565000D01*
X86995000Y-88565000D01*
X86995000Y-88545000D01*
X87249000Y-88545000D01*
X87249000Y-88565000D01*
X87269000Y-88565000D01*
X87269000Y-88819000D01*
X87249000Y-88819000D01*
X87249000Y-90411656D01*
X87463185Y-90534318D01*
X87503361Y-90526370D01*
X87535564Y-90688265D01*
X87693252Y-90924262D01*
X87736512Y-90989005D01*
X88805943Y-92058436D01*
X89106684Y-92259385D01*
X89461431Y-92329948D01*
X94652052Y-92329948D01*
X95006800Y-92259384D01*
X95307540Y-92058436D01*
X95651488Y-91714488D01*
X95852436Y-91413748D01*
X95923000Y-91059000D01*
X95923000Y-84212750D01*
X96022000Y-84212750D01*
X96022000Y-84803309D01*
X96118673Y-85036698D01*
X96297301Y-85215327D01*
X96530690Y-85312000D01*
X96996250Y-85312000D01*
X97155000Y-85153250D01*
X97155000Y-84054000D01*
X96180750Y-84054000D01*
X96022000Y-84212750D01*
X95923000Y-84212750D01*
X95923000Y-84012860D01*
X95908360Y-83939259D01*
X95852437Y-83658113D01*
X95651488Y-83357372D01*
X95133355Y-82839239D01*
X95231181Y-82839239D01*
X95777270Y-82730615D01*
X96036723Y-82557254D01*
X96132863Y-82701137D01*
X96193992Y-82741982D01*
X96118673Y-82817302D01*
X96022000Y-83050691D01*
X96022000Y-83641250D01*
X96180750Y-83800000D01*
X97155000Y-83800000D01*
X97155000Y-83780000D01*
X97409000Y-83780000D01*
X97409000Y-83800000D01*
X97429000Y-83800000D01*
X97429000Y-84054000D01*
X97409000Y-84054000D01*
X97409000Y-85153250D01*
X97567750Y-85312000D01*
X98033310Y-85312000D01*
X98189855Y-85247157D01*
X98337028Y-85744349D01*
X98678460Y-86166145D01*
X99155316Y-86425173D01*
X99226815Y-86439318D01*
X99441000Y-86316656D01*
X99441000Y-84474000D01*
X99421000Y-84474000D01*
X99421000Y-84220000D01*
X99441000Y-84220000D01*
X99441000Y-84200000D01*
X99695000Y-84200000D01*
X99695000Y-84220000D01*
X99715000Y-84220000D01*
X99715000Y-84474000D01*
X99695000Y-84474000D01*
X99695000Y-86316656D01*
X99909185Y-86439318D01*
X99930990Y-86435004D01*
X99930990Y-87501400D01*
X100001554Y-87856148D01*
X100164568Y-88100116D01*
X100202502Y-88156888D01*
X101566390Y-89520776D01*
X101867130Y-89721724D01*
X102221878Y-89792288D01*
X109171404Y-89792288D01*
X109526152Y-89721724D01*
X109826892Y-89520776D01*
X112847690Y-86499978D01*
X113048639Y-86199237D01*
X113119202Y-85844490D01*
X113119202Y-81748185D01*
X114493682Y-81748185D01*
X114507827Y-81819684D01*
X114766855Y-82296540D01*
X115188651Y-82637972D01*
X115320498Y-82677000D01*
X115188651Y-82716028D01*
X114766855Y-83057460D01*
X114507827Y-83534316D01*
X114493682Y-83605815D01*
X114616344Y-83820000D01*
X116459000Y-83820000D01*
X116459000Y-81534000D01*
X116713000Y-81534000D01*
X116713000Y-83820000D01*
X118555656Y-83820000D01*
X118678318Y-83605815D01*
X118664173Y-83534316D01*
X118405145Y-83057460D01*
X117983349Y-82716028D01*
X117851502Y-82677000D01*
X117983349Y-82637972D01*
X118405145Y-82296540D01*
X118664173Y-81819684D01*
X118678318Y-81748185D01*
X118555656Y-81534000D01*
X116713000Y-81534000D01*
X116459000Y-81534000D01*
X114616344Y-81534000D01*
X114493682Y-81748185D01*
X113119202Y-81748185D01*
X113119202Y-81065815D01*
X114493682Y-81065815D01*
X114616344Y-81280000D01*
X116459000Y-81280000D01*
X116459000Y-80022000D01*
X116713000Y-80022000D01*
X116713000Y-81280000D01*
X118555656Y-81280000D01*
X118678318Y-81065815D01*
X118664173Y-80994316D01*
X118405145Y-80517460D01*
X117983349Y-80176028D01*
X117463000Y-80022000D01*
X116713000Y-80022000D01*
X116459000Y-80022000D01*
X115709000Y-80022000D01*
X115188651Y-80176028D01*
X114766855Y-80517460D01*
X114507827Y-80994316D01*
X114493682Y-81065815D01*
X113119202Y-81065815D01*
X113119202Y-80302000D01*
X114654977Y-80302000D01*
X115009725Y-80231436D01*
X115310465Y-80030488D01*
X116225488Y-79115465D01*
X116256471Y-79069096D01*
X116426436Y-78814725D01*
X116497000Y-78459977D01*
X116497000Y-78445387D01*
X116602137Y-78375137D01*
X116762818Y-78134661D01*
X116767801Y-78109611D01*
X116809673Y-78210699D01*
X116988302Y-78389327D01*
X117221691Y-78486000D01*
X117570250Y-78486000D01*
X117729000Y-78327250D01*
X117729000Y-76962000D01*
X117709000Y-76962000D01*
X117709000Y-76708000D01*
X117729000Y-76708000D01*
X117729000Y-75342750D01*
X117570250Y-75184000D01*
X117221691Y-75184000D01*
X116988302Y-75280673D01*
X116809673Y-75459301D01*
X116767801Y-75560389D01*
X116762818Y-75535339D01*
X116602137Y-75294863D01*
X116361661Y-75134182D01*
X116078000Y-75077758D01*
X115062000Y-75077758D01*
X114831863Y-75123535D01*
X115141398Y-74814000D01*
X118827159Y-74814000D01*
X118827159Y-75384133D01*
X118723698Y-75280673D01*
X118490309Y-75184000D01*
X118141750Y-75184000D01*
X117983000Y-75342750D01*
X117983000Y-76708000D01*
X118003000Y-76708000D01*
X118003000Y-76962000D01*
X117983000Y-76962000D01*
X117983000Y-78327250D01*
X118141750Y-78486000D01*
X118490309Y-78486000D01*
X118723698Y-78389327D01*
X118827159Y-78285867D01*
X118827159Y-85064722D01*
X118434141Y-85457739D01*
X118424027Y-85442603D01*
X118003530Y-85161636D01*
X118405145Y-84836540D01*
X118664173Y-84359684D01*
X118678318Y-84288185D01*
X118555656Y-84074000D01*
X116713000Y-84074000D01*
X116713000Y-84094000D01*
X116459000Y-84094000D01*
X116459000Y-84074000D01*
X114616344Y-84074000D01*
X114493682Y-84288185D01*
X114507827Y-84359684D01*
X114766855Y-84836540D01*
X115168470Y-85161636D01*
X114747973Y-85442603D01*
X114427800Y-85921777D01*
X114315370Y-86487000D01*
X114326691Y-86543912D01*
X108291544Y-92579058D01*
X71029112Y-92579058D01*
X70291557Y-91841502D01*
X70291557Y-63841185D01*
X72583682Y-63841185D01*
X72597827Y-63912684D01*
X72856855Y-64389540D01*
X73278651Y-64730972D01*
X73799000Y-64885000D01*
X74549000Y-64885000D01*
X74549000Y-63627000D01*
X72706344Y-63627000D01*
X72583682Y-63841185D01*
X70291557Y-63841185D01*
X70291557Y-61345125D01*
X70335497Y-61301185D01*
X72583682Y-61301185D01*
X72597827Y-61372684D01*
X72856855Y-61849540D01*
X73278651Y-62190972D01*
X73410498Y-62230000D01*
X73278651Y-62269028D01*
X72856855Y-62610460D01*
X72597827Y-63087316D01*
X72583682Y-63158815D01*
X72706344Y-63373000D01*
X74549000Y-63373000D01*
X74549000Y-61087000D01*
X72706344Y-61087000D01*
X72583682Y-61301185D01*
X70335497Y-61301185D01*
X72189682Y-59447000D01*
X72826349Y-59447000D01*
X72837973Y-59464397D01*
X73258470Y-59745364D01*
X72856855Y-60070460D01*
X72597827Y-60547316D01*
X72583682Y-60618815D01*
X72706344Y-60833000D01*
X74549000Y-60833000D01*
X74549000Y-60813000D01*
X74803000Y-60813000D01*
X74803000Y-60833000D01*
X76645656Y-60833000D01*
X76768318Y-60618815D01*
X76754173Y-60547316D01*
X76495145Y-60070460D01*
X76093530Y-59745364D01*
X76514027Y-59464397D01*
X76834200Y-58985223D01*
X76946630Y-58420000D01*
X76834200Y-57854777D01*
X76514027Y-57375603D01*
X76176387Y-57150000D01*
X76514027Y-56924397D01*
X76834200Y-56445223D01*
X76946630Y-55880000D01*
X76834200Y-55314777D01*
X76514027Y-54835603D01*
X76034853Y-54515430D01*
X75469630Y-54403000D01*
X73882370Y-54403000D01*
X73317147Y-54515430D01*
X72837973Y-54835603D01*
X72826349Y-54853000D01*
X71504269Y-54853000D01*
X70877000Y-54225731D01*
X70877000Y-52571320D01*
X71021067Y-52919989D01*
X71506456Y-53406226D01*
X72140971Y-53669700D01*
X72828014Y-53670299D01*
X73462989Y-53407933D01*
X73949226Y-52922544D01*
X74212700Y-52288029D01*
X74213299Y-51600986D01*
X73950933Y-50966011D01*
X73465544Y-50479774D01*
X72831029Y-50216300D01*
X72143986Y-50215701D01*
X71509011Y-50478067D01*
X71022774Y-50963456D01*
X70877000Y-51314518D01*
X70877000Y-48571320D01*
X71021067Y-48919989D01*
X71506456Y-49406226D01*
X72140971Y-49669700D01*
X72828014Y-49670299D01*
X73462989Y-49407933D01*
X73775935Y-49095532D01*
X77513073Y-49095532D01*
X77611736Y-49362387D01*
X78221461Y-49588908D01*
X78871460Y-49564856D01*
X79360264Y-49362387D01*
X79458927Y-49095532D01*
X78486000Y-48122605D01*
X77513073Y-49095532D01*
X73775935Y-49095532D01*
X73949226Y-48922544D01*
X74212700Y-48288029D01*
X74213231Y-47678461D01*
X76840092Y-47678461D01*
X76864144Y-48328460D01*
X77066613Y-48817264D01*
X77333468Y-48915927D01*
X78306395Y-47943000D01*
X77333468Y-46970073D01*
X77066613Y-47068736D01*
X76840092Y-47678461D01*
X74213231Y-47678461D01*
X74213299Y-47600986D01*
X73950933Y-46966011D01*
X73775696Y-46790468D01*
X77513073Y-46790468D01*
X78486000Y-47763395D01*
X79458927Y-46790468D01*
X79360264Y-46523613D01*
X78750539Y-46297092D01*
X78100540Y-46321144D01*
X77611736Y-46523613D01*
X77513073Y-46790468D01*
X73775696Y-46790468D01*
X73550507Y-46564886D01*
X74066894Y-46462170D01*
X74627173Y-46087803D01*
X74749966Y-45904031D01*
X74879683Y-46068922D01*
X75437645Y-46382144D01*
X75565566Y-46413124D01*
X75819000Y-46293777D01*
X75819000Y-44450000D01*
X76073000Y-44450000D01*
X76073000Y-46293777D01*
X76326434Y-46413124D01*
X76454355Y-46382144D01*
X77012317Y-46068922D01*
X77407942Y-45566020D01*
X77581000Y-44950000D01*
X77581000Y-44450000D01*
X76073000Y-44450000D01*
X75819000Y-44450000D01*
X75799000Y-44450000D01*
X75799000Y-44196000D01*
X75819000Y-44196000D01*
X75819000Y-42352223D01*
X76073000Y-42352223D01*
X76073000Y-44196000D01*
X77581000Y-44196000D01*
X77581000Y-43696000D01*
X77407942Y-43079980D01*
X77012317Y-42577078D01*
X76616271Y-42354750D01*
X80303000Y-42354750D01*
X80303000Y-43195309D01*
X80399673Y-43428698D01*
X80578301Y-43607327D01*
X80811690Y-43704000D01*
X81502250Y-43704000D01*
X81661000Y-43545250D01*
X81661000Y-42196000D01*
X81915000Y-42196000D01*
X81915000Y-43545250D01*
X82073750Y-43704000D01*
X82764310Y-43704000D01*
X82997699Y-43607327D01*
X83176327Y-43428698D01*
X83273000Y-43195309D01*
X83273000Y-42354750D01*
X83114250Y-42196000D01*
X81915000Y-42196000D01*
X81661000Y-42196000D01*
X80461750Y-42196000D01*
X80303000Y-42354750D01*
X76616271Y-42354750D01*
X76454355Y-42263856D01*
X76326434Y-42232876D01*
X76073000Y-42352223D01*
X75819000Y-42352223D01*
X75565566Y-42232876D01*
X75437645Y-42263856D01*
X74879683Y-42577078D01*
X74749966Y-42741969D01*
X74627173Y-42558197D01*
X74433000Y-42428455D01*
X74433000Y-41048362D01*
X74538671Y-40942691D01*
X80303000Y-40942691D01*
X80303000Y-41783250D01*
X80461750Y-41942000D01*
X81661000Y-41942000D01*
X81661000Y-40592750D01*
X81915000Y-40592750D01*
X81915000Y-41942000D01*
X83114250Y-41942000D01*
X83273000Y-41783250D01*
X83273000Y-40942691D01*
X83176327Y-40709302D01*
X82997699Y-40530673D01*
X82764310Y-40434000D01*
X82073750Y-40434000D01*
X81915000Y-40592750D01*
X81661000Y-40592750D01*
X81502250Y-40434000D01*
X80811690Y-40434000D01*
X80578301Y-40530673D01*
X80399673Y-40709302D01*
X80303000Y-40942691D01*
X74538671Y-40942691D01*
X76675624Y-38805738D01*
X110137899Y-38805738D01*
X110127762Y-38820909D01*
X110127762Y-38820909D01*
G37*
X110127762Y-38820909D02*
X110071338Y-39104570D01*
X110071338Y-40905430D01*
X110127762Y-41189091D01*
X110288443Y-41429567D01*
X110528919Y-41590248D01*
X110812580Y-41646672D01*
X114312700Y-41646672D01*
X114596361Y-41590248D01*
X114836837Y-41429567D01*
X114997518Y-41189091D01*
X115053942Y-40905430D01*
X115053942Y-39104570D01*
X114997518Y-38820909D01*
X114987381Y-38805738D01*
X115136619Y-38805738D01*
X115126482Y-38820909D01*
X115070058Y-39104570D01*
X115070058Y-40905430D01*
X115126482Y-41189091D01*
X115287163Y-41429567D01*
X115527639Y-41590248D01*
X115811300Y-41646672D01*
X116434360Y-41646672D01*
X116434360Y-43447758D01*
X115956000Y-43447758D01*
X115672339Y-43504182D01*
X115431863Y-43664863D01*
X115271182Y-43905339D01*
X115214758Y-44189000D01*
X115214758Y-46489000D01*
X115271182Y-46772661D01*
X115431863Y-47013137D01*
X115672339Y-47173818D01*
X115956000Y-47230242D01*
X119756000Y-47230242D01*
X120039661Y-47173818D01*
X120280137Y-47013137D01*
X120284509Y-47006594D01*
X120284509Y-48751406D01*
X120280137Y-48744863D01*
X120039661Y-48584182D01*
X119756000Y-48527758D01*
X115956000Y-48527758D01*
X115672339Y-48584182D01*
X115431863Y-48744863D01*
X115271182Y-48985339D01*
X115214758Y-49269000D01*
X115214758Y-51569000D01*
X115271182Y-51852661D01*
X115431863Y-52093137D01*
X115672339Y-52253818D01*
X115956000Y-52310242D01*
X118827159Y-52310242D01*
X118827159Y-55731839D01*
X118744200Y-55314777D01*
X118424027Y-54835603D01*
X117944853Y-54515430D01*
X117379630Y-54403000D01*
X115792370Y-54403000D01*
X115227147Y-54515430D01*
X114747973Y-54835603D01*
X114427800Y-55314777D01*
X114315370Y-55880000D01*
X114350154Y-56054870D01*
X114285336Y-56119688D01*
X103769327Y-56119688D01*
X96555930Y-48906291D01*
X96658181Y-48392239D01*
X96612931Y-48164750D01*
X101396000Y-48164750D01*
X101396000Y-53455310D01*
X101492673Y-53688699D01*
X101671302Y-53867327D01*
X101904691Y-53964000D01*
X106520250Y-53964000D01*
X106679000Y-53805250D01*
X106679000Y-48006000D01*
X106933000Y-48006000D01*
X106933000Y-53805250D01*
X107091750Y-53964000D01*
X111707309Y-53964000D01*
X111940698Y-53867327D01*
X112119327Y-53688699D01*
X112216000Y-53455310D01*
X112216000Y-48164750D01*
X112057250Y-48006000D01*
X106933000Y-48006000D01*
X106679000Y-48006000D01*
X101554750Y-48006000D01*
X101396000Y-48164750D01*
X96612931Y-48164750D01*
X96549557Y-47846150D01*
X96240222Y-47383198D01*
X95777270Y-47073863D01*
X95231181Y-46965239D01*
X94414737Y-46965239D01*
X94948130Y-46431846D01*
X95123000Y-46466630D01*
X95688223Y-46354200D01*
X96167397Y-46034027D01*
X96487570Y-45554853D01*
X96600000Y-44989630D01*
X96600000Y-43402370D01*
X96487570Y-42837147D01*
X96167397Y-42357973D01*
X96084660Y-42302690D01*
X101396000Y-42302690D01*
X101396000Y-47593250D01*
X101554750Y-47752000D01*
X106679000Y-47752000D01*
X106679000Y-41952750D01*
X106933000Y-41952750D01*
X106933000Y-47752000D01*
X112057250Y-47752000D01*
X112216000Y-47593250D01*
X112216000Y-42302690D01*
X112119327Y-42069301D01*
X111940698Y-41890673D01*
X111707309Y-41794000D01*
X107091750Y-41794000D01*
X106933000Y-41952750D01*
X106679000Y-41952750D01*
X106520250Y-41794000D01*
X101904691Y-41794000D01*
X101671302Y-41890673D01*
X101492673Y-42069301D01*
X101396000Y-42302690D01*
X96084660Y-42302690D01*
X95688223Y-42037800D01*
X95123000Y-41925370D01*
X94557777Y-42037800D01*
X94078603Y-42357973D01*
X93853000Y-42695613D01*
X93627397Y-42357973D01*
X93148223Y-42037800D01*
X92583000Y-41925370D01*
X92017777Y-42037800D01*
X91538603Y-42357973D01*
X91313000Y-42695613D01*
X91087397Y-42357973D01*
X90608223Y-42037800D01*
X90043000Y-41925370D01*
X89477777Y-42037800D01*
X88998603Y-42357973D01*
X88717636Y-42778470D01*
X88392540Y-42376855D01*
X87915684Y-42117827D01*
X87844185Y-42103682D01*
X87630000Y-42226344D01*
X87630000Y-44069000D01*
X87650000Y-44069000D01*
X87650000Y-44323000D01*
X87630000Y-44323000D01*
X87630000Y-46165656D01*
X87844185Y-46288318D01*
X87915684Y-46274173D01*
X88392540Y-46015145D01*
X88717636Y-45613530D01*
X88998603Y-46034027D01*
X89116000Y-46112469D01*
X89116000Y-50005239D01*
X88675040Y-50005239D01*
X88620222Y-49923198D01*
X88229670Y-49662239D01*
X88620222Y-49401280D01*
X88929557Y-48938328D01*
X89038181Y-48392239D01*
X88929557Y-47846150D01*
X88620222Y-47383198D01*
X88157270Y-47073863D01*
X87611181Y-46965239D01*
X86433717Y-46965239D01*
X85923691Y-47066690D01*
X85923691Y-46629357D01*
X85990000Y-46296000D01*
X85990000Y-46045651D01*
X86007397Y-46034027D01*
X86288364Y-45613530D01*
X86613460Y-46015145D01*
X87090316Y-46274173D01*
X87161815Y-46288318D01*
X87376000Y-46165656D01*
X87376000Y-44323000D01*
X87356000Y-44323000D01*
X87356000Y-44069000D01*
X87376000Y-44069000D01*
X87376000Y-42226344D01*
X87161815Y-42103682D01*
X87090316Y-42117827D01*
X86613460Y-42376855D01*
X86288364Y-42778470D01*
X86007397Y-42357973D01*
X85528223Y-42037800D01*
X84963000Y-41925370D01*
X84397777Y-42037800D01*
X83918603Y-42357973D01*
X83598430Y-42837147D01*
X83486000Y-43402370D01*
X83486000Y-44989630D01*
X83598430Y-45554853D01*
X83918603Y-46034027D01*
X83933068Y-46043692D01*
X83869691Y-46362309D01*
X83869691Y-47465239D01*
X83853691Y-47465239D01*
X83498944Y-47535802D01*
X83198203Y-47736751D01*
X82053000Y-48881954D01*
X82053000Y-47810242D01*
X82638000Y-47810242D01*
X82921661Y-47753818D01*
X83162137Y-47593137D01*
X83322818Y-47352661D01*
X83379242Y-47069000D01*
X83379242Y-45069000D01*
X83322818Y-44785339D01*
X83162137Y-44544863D01*
X82921661Y-44384182D01*
X82638000Y-44327758D01*
X80938000Y-44327758D01*
X80654339Y-44384182D01*
X80413863Y-44544863D01*
X80253182Y-44785339D01*
X80196758Y-45069000D01*
X80196758Y-46259016D01*
X80077176Y-46437984D01*
X79999000Y-46831000D01*
X79999000Y-47294738D01*
X79905387Y-47068736D01*
X79638532Y-46970073D01*
X78665605Y-47943000D01*
X79638532Y-48915927D01*
X79905387Y-48817264D01*
X79999000Y-48565287D01*
X79999000Y-50880105D01*
X79945342Y-50960410D01*
X79465544Y-50479774D01*
X78831029Y-50216300D01*
X78143986Y-50215701D01*
X77509011Y-50478067D01*
X77022774Y-50963456D01*
X76759300Y-51597971D01*
X76758701Y-52285014D01*
X77021067Y-52919989D01*
X77506456Y-53406226D01*
X77574358Y-53434421D01*
X77629564Y-53711961D01*
X77797971Y-53964000D01*
X77830512Y-54012701D01*
X79718299Y-55900488D01*
X80019039Y-56101436D01*
X80373787Y-56172000D01*
X81102747Y-56172000D01*
X80921863Y-56292863D01*
X80761182Y-56533339D01*
X80704758Y-56817000D01*
X80704758Y-56890000D01*
X80691913Y-56890000D01*
X80337166Y-56960563D01*
X80036425Y-57161512D01*
X78540842Y-58657095D01*
X78339894Y-58957835D01*
X78269330Y-59312583D01*
X78269330Y-61854104D01*
X76750436Y-63372998D01*
X76645657Y-63372998D01*
X76768318Y-63158815D01*
X76754173Y-63087316D01*
X76495145Y-62610460D01*
X76073349Y-62269028D01*
X75941502Y-62230000D01*
X76073349Y-62190972D01*
X76495145Y-61849540D01*
X76754173Y-61372684D01*
X76768318Y-61301185D01*
X76645656Y-61087000D01*
X74803000Y-61087000D01*
X74803000Y-63373000D01*
X74823000Y-63373000D01*
X74823000Y-63627000D01*
X74803000Y-63627000D01*
X74803000Y-64885000D01*
X75553000Y-64885000D01*
X76073349Y-64730972D01*
X76319407Y-64531795D01*
X76319407Y-70096140D01*
X71101419Y-75314128D01*
X70900471Y-75614868D01*
X70829907Y-75969616D01*
X70829907Y-89951966D01*
X70900471Y-90306714D01*
X70970591Y-90411656D01*
X71101419Y-90607454D01*
X72309340Y-91815375D01*
X72610080Y-92016323D01*
X72964828Y-92086887D01*
X81814113Y-92086887D01*
X82168861Y-92016323D01*
X82469601Y-91815375D01*
X85465976Y-88819000D01*
X85737000Y-88819000D01*
X85737000Y-89319000D01*
X85891028Y-89839349D01*
X86232460Y-90261145D01*
X86709316Y-90520173D01*
X86780815Y-90534318D01*
X86995000Y-90411656D01*
X86995000Y-88819000D01*
X85737000Y-88819000D01*
X85465976Y-88819000D01*
X85737000Y-88547976D01*
X85737000Y-88565000D01*
X86995000Y-88565000D01*
X86995000Y-88545000D01*
X87249000Y-88545000D01*
X87249000Y-88565000D01*
X87269000Y-88565000D01*
X87269000Y-88819000D01*
X87249000Y-88819000D01*
X87249000Y-90411656D01*
X87463185Y-90534318D01*
X87503361Y-90526370D01*
X87535564Y-90688265D01*
X87693252Y-90924262D01*
X87736512Y-90989005D01*
X88805943Y-92058436D01*
X89106684Y-92259385D01*
X89461431Y-92329948D01*
X94652052Y-92329948D01*
X95006800Y-92259384D01*
X95307540Y-92058436D01*
X95651488Y-91714488D01*
X95852436Y-91413748D01*
X95923000Y-91059000D01*
X95923000Y-84212750D01*
X96022000Y-84212750D01*
X96022000Y-84803309D01*
X96118673Y-85036698D01*
X96297301Y-85215327D01*
X96530690Y-85312000D01*
X96996250Y-85312000D01*
X97155000Y-85153250D01*
X97155000Y-84054000D01*
X96180750Y-84054000D01*
X96022000Y-84212750D01*
X95923000Y-84212750D01*
X95923000Y-84012860D01*
X95908360Y-83939259D01*
X95852437Y-83658113D01*
X95651488Y-83357372D01*
X95133355Y-82839239D01*
X95231181Y-82839239D01*
X95777270Y-82730615D01*
X96036723Y-82557254D01*
X96132863Y-82701137D01*
X96193992Y-82741982D01*
X96118673Y-82817302D01*
X96022000Y-83050691D01*
X96022000Y-83641250D01*
X96180750Y-83800000D01*
X97155000Y-83800000D01*
X97155000Y-83780000D01*
X97409000Y-83780000D01*
X97409000Y-83800000D01*
X97429000Y-83800000D01*
X97429000Y-84054000D01*
X97409000Y-84054000D01*
X97409000Y-85153250D01*
X97567750Y-85312000D01*
X98033310Y-85312000D01*
X98189855Y-85247157D01*
X98337028Y-85744349D01*
X98678460Y-86166145D01*
X99155316Y-86425173D01*
X99226815Y-86439318D01*
X99441000Y-86316656D01*
X99441000Y-84474000D01*
X99421000Y-84474000D01*
X99421000Y-84220000D01*
X99441000Y-84220000D01*
X99441000Y-84200000D01*
X99695000Y-84200000D01*
X99695000Y-84220000D01*
X99715000Y-84220000D01*
X99715000Y-84474000D01*
X99695000Y-84474000D01*
X99695000Y-86316656D01*
X99909185Y-86439318D01*
X99930990Y-86435004D01*
X99930990Y-87501400D01*
X100001554Y-87856148D01*
X100164568Y-88100116D01*
X100202502Y-88156888D01*
X101566390Y-89520776D01*
X101867130Y-89721724D01*
X102221878Y-89792288D01*
X109171404Y-89792288D01*
X109526152Y-89721724D01*
X109826892Y-89520776D01*
X112847690Y-86499978D01*
X113048639Y-86199237D01*
X113119202Y-85844490D01*
X113119202Y-81748185D01*
X114493682Y-81748185D01*
X114507827Y-81819684D01*
X114766855Y-82296540D01*
X115188651Y-82637972D01*
X115320498Y-82677000D01*
X115188651Y-82716028D01*
X114766855Y-83057460D01*
X114507827Y-83534316D01*
X114493682Y-83605815D01*
X114616344Y-83820000D01*
X116459000Y-83820000D01*
X116459000Y-81534000D01*
X116713000Y-81534000D01*
X116713000Y-83820000D01*
X118555656Y-83820000D01*
X118678318Y-83605815D01*
X118664173Y-83534316D01*
X118405145Y-83057460D01*
X117983349Y-82716028D01*
X117851502Y-82677000D01*
X117983349Y-82637972D01*
X118405145Y-82296540D01*
X118664173Y-81819684D01*
X118678318Y-81748185D01*
X118555656Y-81534000D01*
X116713000Y-81534000D01*
X116459000Y-81534000D01*
X114616344Y-81534000D01*
X114493682Y-81748185D01*
X113119202Y-81748185D01*
X113119202Y-81065815D01*
X114493682Y-81065815D01*
X114616344Y-81280000D01*
X116459000Y-81280000D01*
X116459000Y-80022000D01*
X116713000Y-80022000D01*
X116713000Y-81280000D01*
X118555656Y-81280000D01*
X118678318Y-81065815D01*
X118664173Y-80994316D01*
X118405145Y-80517460D01*
X117983349Y-80176028D01*
X117463000Y-80022000D01*
X116713000Y-80022000D01*
X116459000Y-80022000D01*
X115709000Y-80022000D01*
X115188651Y-80176028D01*
X114766855Y-80517460D01*
X114507827Y-80994316D01*
X114493682Y-81065815D01*
X113119202Y-81065815D01*
X113119202Y-80302000D01*
X114654977Y-80302000D01*
X115009725Y-80231436D01*
X115310465Y-80030488D01*
X116225488Y-79115465D01*
X116256471Y-79069096D01*
X116426436Y-78814725D01*
X116497000Y-78459977D01*
X116497000Y-78445387D01*
X116602137Y-78375137D01*
X116762818Y-78134661D01*
X116767801Y-78109611D01*
X116809673Y-78210699D01*
X116988302Y-78389327D01*
X117221691Y-78486000D01*
X117570250Y-78486000D01*
X117729000Y-78327250D01*
X117729000Y-76962000D01*
X117709000Y-76962000D01*
X117709000Y-76708000D01*
X117729000Y-76708000D01*
X117729000Y-75342750D01*
X117570250Y-75184000D01*
X117221691Y-75184000D01*
X116988302Y-75280673D01*
X116809673Y-75459301D01*
X116767801Y-75560389D01*
X116762818Y-75535339D01*
X116602137Y-75294863D01*
X116361661Y-75134182D01*
X116078000Y-75077758D01*
X115062000Y-75077758D01*
X114831863Y-75123535D01*
X115141398Y-74814000D01*
X118827159Y-74814000D01*
X118827159Y-75384133D01*
X118723698Y-75280673D01*
X118490309Y-75184000D01*
X118141750Y-75184000D01*
X117983000Y-75342750D01*
X117983000Y-76708000D01*
X118003000Y-76708000D01*
X118003000Y-76962000D01*
X117983000Y-76962000D01*
X117983000Y-78327250D01*
X118141750Y-78486000D01*
X118490309Y-78486000D01*
X118723698Y-78389327D01*
X118827159Y-78285867D01*
X118827159Y-85064722D01*
X118434141Y-85457739D01*
X118424027Y-85442603D01*
X118003530Y-85161636D01*
X118405145Y-84836540D01*
X118664173Y-84359684D01*
X118678318Y-84288185D01*
X118555656Y-84074000D01*
X116713000Y-84074000D01*
X116713000Y-84094000D01*
X116459000Y-84094000D01*
X116459000Y-84074000D01*
X114616344Y-84074000D01*
X114493682Y-84288185D01*
X114507827Y-84359684D01*
X114766855Y-84836540D01*
X115168470Y-85161636D01*
X114747973Y-85442603D01*
X114427800Y-85921777D01*
X114315370Y-86487000D01*
X114326691Y-86543912D01*
X108291544Y-92579058D01*
X71029112Y-92579058D01*
X70291557Y-91841502D01*
X70291557Y-63841185D01*
X72583682Y-63841185D01*
X72597827Y-63912684D01*
X72856855Y-64389540D01*
X73278651Y-64730972D01*
X73799000Y-64885000D01*
X74549000Y-64885000D01*
X74549000Y-63627000D01*
X72706344Y-63627000D01*
X72583682Y-63841185D01*
X70291557Y-63841185D01*
X70291557Y-61345125D01*
X70335497Y-61301185D01*
X72583682Y-61301185D01*
X72597827Y-61372684D01*
X72856855Y-61849540D01*
X73278651Y-62190972D01*
X73410498Y-62230000D01*
X73278651Y-62269028D01*
X72856855Y-62610460D01*
X72597827Y-63087316D01*
X72583682Y-63158815D01*
X72706344Y-63373000D01*
X74549000Y-63373000D01*
X74549000Y-61087000D01*
X72706344Y-61087000D01*
X72583682Y-61301185D01*
X70335497Y-61301185D01*
X72189682Y-59447000D01*
X72826349Y-59447000D01*
X72837973Y-59464397D01*
X73258470Y-59745364D01*
X72856855Y-60070460D01*
X72597827Y-60547316D01*
X72583682Y-60618815D01*
X72706344Y-60833000D01*
X74549000Y-60833000D01*
X74549000Y-60813000D01*
X74803000Y-60813000D01*
X74803000Y-60833000D01*
X76645656Y-60833000D01*
X76768318Y-60618815D01*
X76754173Y-60547316D01*
X76495145Y-60070460D01*
X76093530Y-59745364D01*
X76514027Y-59464397D01*
X76834200Y-58985223D01*
X76946630Y-58420000D01*
X76834200Y-57854777D01*
X76514027Y-57375603D01*
X76176387Y-57150000D01*
X76514027Y-56924397D01*
X76834200Y-56445223D01*
X76946630Y-55880000D01*
X76834200Y-55314777D01*
X76514027Y-54835603D01*
X76034853Y-54515430D01*
X75469630Y-54403000D01*
X73882370Y-54403000D01*
X73317147Y-54515430D01*
X72837973Y-54835603D01*
X72826349Y-54853000D01*
X71504269Y-54853000D01*
X70877000Y-54225731D01*
X70877000Y-52571320D01*
X71021067Y-52919989D01*
X71506456Y-53406226D01*
X72140971Y-53669700D01*
X72828014Y-53670299D01*
X73462989Y-53407933D01*
X73949226Y-52922544D01*
X74212700Y-52288029D01*
X74213299Y-51600986D01*
X73950933Y-50966011D01*
X73465544Y-50479774D01*
X72831029Y-50216300D01*
X72143986Y-50215701D01*
X71509011Y-50478067D01*
X71022774Y-50963456D01*
X70877000Y-51314518D01*
X70877000Y-48571320D01*
X71021067Y-48919989D01*
X71506456Y-49406226D01*
X72140971Y-49669700D01*
X72828014Y-49670299D01*
X73462989Y-49407933D01*
X73775935Y-49095532D01*
X77513073Y-49095532D01*
X77611736Y-49362387D01*
X78221461Y-49588908D01*
X78871460Y-49564856D01*
X79360264Y-49362387D01*
X79458927Y-49095532D01*
X78486000Y-48122605D01*
X77513073Y-49095532D01*
X73775935Y-49095532D01*
X73949226Y-48922544D01*
X74212700Y-48288029D01*
X74213231Y-47678461D01*
X76840092Y-47678461D01*
X76864144Y-48328460D01*
X77066613Y-48817264D01*
X77333468Y-48915927D01*
X78306395Y-47943000D01*
X77333468Y-46970073D01*
X77066613Y-47068736D01*
X76840092Y-47678461D01*
X74213231Y-47678461D01*
X74213299Y-47600986D01*
X73950933Y-46966011D01*
X73775696Y-46790468D01*
X77513073Y-46790468D01*
X78486000Y-47763395D01*
X79458927Y-46790468D01*
X79360264Y-46523613D01*
X78750539Y-46297092D01*
X78100540Y-46321144D01*
X77611736Y-46523613D01*
X77513073Y-46790468D01*
X73775696Y-46790468D01*
X73550507Y-46564886D01*
X74066894Y-46462170D01*
X74627173Y-46087803D01*
X74749966Y-45904031D01*
X74879683Y-46068922D01*
X75437645Y-46382144D01*
X75565566Y-46413124D01*
X75819000Y-46293777D01*
X75819000Y-44450000D01*
X76073000Y-44450000D01*
X76073000Y-46293777D01*
X76326434Y-46413124D01*
X76454355Y-46382144D01*
X77012317Y-46068922D01*
X77407942Y-45566020D01*
X77581000Y-44950000D01*
X77581000Y-44450000D01*
X76073000Y-44450000D01*
X75819000Y-44450000D01*
X75799000Y-44450000D01*
X75799000Y-44196000D01*
X75819000Y-44196000D01*
X75819000Y-42352223D01*
X76073000Y-42352223D01*
X76073000Y-44196000D01*
X77581000Y-44196000D01*
X77581000Y-43696000D01*
X77407942Y-43079980D01*
X77012317Y-42577078D01*
X76616271Y-42354750D01*
X80303000Y-42354750D01*
X80303000Y-43195309D01*
X80399673Y-43428698D01*
X80578301Y-43607327D01*
X80811690Y-43704000D01*
X81502250Y-43704000D01*
X81661000Y-43545250D01*
X81661000Y-42196000D01*
X81915000Y-42196000D01*
X81915000Y-43545250D01*
X82073750Y-43704000D01*
X82764310Y-43704000D01*
X82997699Y-43607327D01*
X83176327Y-43428698D01*
X83273000Y-43195309D01*
X83273000Y-42354750D01*
X83114250Y-42196000D01*
X81915000Y-42196000D01*
X81661000Y-42196000D01*
X80461750Y-42196000D01*
X80303000Y-42354750D01*
X76616271Y-42354750D01*
X76454355Y-42263856D01*
X76326434Y-42232876D01*
X76073000Y-42352223D01*
X75819000Y-42352223D01*
X75565566Y-42232876D01*
X75437645Y-42263856D01*
X74879683Y-42577078D01*
X74749966Y-42741969D01*
X74627173Y-42558197D01*
X74433000Y-42428455D01*
X74433000Y-41048362D01*
X74538671Y-40942691D01*
X80303000Y-40942691D01*
X80303000Y-41783250D01*
X80461750Y-41942000D01*
X81661000Y-41942000D01*
X81661000Y-40592750D01*
X81915000Y-40592750D01*
X81915000Y-41942000D01*
X83114250Y-41942000D01*
X83273000Y-41783250D01*
X83273000Y-40942691D01*
X83176327Y-40709302D01*
X82997699Y-40530673D01*
X82764310Y-40434000D01*
X82073750Y-40434000D01*
X81915000Y-40592750D01*
X81661000Y-40592750D01*
X81502250Y-40434000D01*
X80811690Y-40434000D01*
X80578301Y-40530673D01*
X80399673Y-40709302D01*
X80303000Y-40942691D01*
X74538671Y-40942691D01*
X76675624Y-38805738D01*
X110137899Y-38805738D01*
X110127762Y-38820909D01*
G36*
X81446000Y-63558242D02*
X82584845Y-63558242D01*
X83385038Y-64358435D01*
X83385040Y-64358438D01*
X83718223Y-64581063D01*
X83783430Y-64594033D01*
X84111239Y-64659240D01*
X84111244Y-64659239D01*
X85451554Y-64659239D01*
X85887628Y-64950615D01*
X85935439Y-64960125D01*
X85844234Y-64987461D01*
X85438659Y-65318054D01*
X85190469Y-65778689D01*
X85179733Y-65838910D01*
X85303075Y-66045239D01*
X86895449Y-66045239D01*
X86895449Y-66025239D01*
X87149449Y-66025239D01*
X87149449Y-66045239D01*
X87169449Y-66045239D01*
X87169449Y-66299239D01*
X87149449Y-66299239D01*
X87149449Y-66319239D01*
X86895449Y-66319239D01*
X86895449Y-66299239D01*
X85303075Y-66299239D01*
X85179733Y-66505568D01*
X85190469Y-66565789D01*
X85438659Y-67026424D01*
X85844234Y-67357017D01*
X85935439Y-67384353D01*
X85887628Y-67393863D01*
X85451554Y-67685239D01*
X84381092Y-67685239D01*
X84381273Y-67477752D01*
X84141695Y-66897928D01*
X83698465Y-66453924D01*
X83119061Y-66213335D01*
X82491692Y-66212787D01*
X81911868Y-66452365D01*
X81467864Y-66895595D01*
X81227275Y-67474999D01*
X81226727Y-68102368D01*
X81466305Y-68682192D01*
X81754610Y-68971000D01*
X81311750Y-68971000D01*
X81153000Y-69129750D01*
X81153000Y-70104000D01*
X81173000Y-70104000D01*
X81173000Y-70358000D01*
X81153000Y-70358000D01*
X81153000Y-71332250D01*
X81311750Y-71491000D01*
X81754839Y-71491000D01*
X81467864Y-71777475D01*
X81227275Y-72356879D01*
X81226727Y-72984248D01*
X81457598Y-73543000D01*
X81331750Y-73543000D01*
X81173000Y-73701750D01*
X81173000Y-74676000D01*
X81193000Y-74676000D01*
X81193000Y-74930000D01*
X81173000Y-74930000D01*
X81173000Y-75904250D01*
X81331750Y-76063000D01*
X81922309Y-76063000D01*
X82155698Y-75966327D01*
X82231018Y-75891008D01*
X82271863Y-75952137D01*
X82512339Y-76112818D01*
X82796000Y-76169242D01*
X83232188Y-76169242D01*
X79048430Y-80353000D01*
X76592469Y-80353000D01*
X76514027Y-80235603D01*
X76176387Y-80010000D01*
X76514027Y-79784397D01*
X76834200Y-79305223D01*
X76946630Y-78740000D01*
X76834200Y-78174777D01*
X76514027Y-77695603D01*
X76316729Y-77563773D01*
X78791752Y-75088750D01*
X79661000Y-75088750D01*
X79661000Y-75554310D01*
X79757673Y-75787699D01*
X79936302Y-75966327D01*
X80169691Y-76063000D01*
X80760250Y-76063000D01*
X80919000Y-75904250D01*
X80919000Y-74930000D01*
X79819750Y-74930000D01*
X79661000Y-75088750D01*
X78791752Y-75088750D01*
X79331171Y-74549331D01*
X79394858Y-74454016D01*
X79532119Y-74248591D01*
X79571285Y-74051690D01*
X79661000Y-74051690D01*
X79661000Y-74517250D01*
X79819750Y-74676000D01*
X80919000Y-74676000D01*
X80919000Y-73701750D01*
X80760250Y-73543000D01*
X80169691Y-73543000D01*
X79936302Y-73639673D01*
X79757673Y-73818301D01*
X79661000Y-74051690D01*
X79571285Y-74051690D01*
X79602683Y-73893843D01*
X79602683Y-70516750D01*
X79641000Y-70516750D01*
X79641000Y-70982310D01*
X79737673Y-71215699D01*
X79916302Y-71394327D01*
X80149691Y-71491000D01*
X80740250Y-71491000D01*
X80899000Y-71332250D01*
X80899000Y-70358000D01*
X79799750Y-70358000D01*
X79641000Y-70516750D01*
X79602683Y-70516750D01*
X79602683Y-69479690D01*
X79641000Y-69479690D01*
X79641000Y-69945250D01*
X79799750Y-70104000D01*
X80899000Y-70104000D01*
X80899000Y-69129750D01*
X80740250Y-68971000D01*
X80149691Y-68971000D01*
X79916302Y-69067673D01*
X79737673Y-69246301D01*
X79641000Y-69479690D01*
X79602683Y-69479690D01*
X79602683Y-65556399D01*
X80962772Y-64196310D01*
X81030311Y-64095231D01*
X81163720Y-63895570D01*
X81234284Y-63540822D01*
X81234284Y-63516129D01*
X81446000Y-63558242D01*
X81446000Y-63558242D01*
G37*
X81446000Y-63558242D02*
X82584845Y-63558242D01*
X83385038Y-64358435D01*
X83385040Y-64358438D01*
X83718223Y-64581063D01*
X83783430Y-64594033D01*
X84111239Y-64659240D01*
X84111244Y-64659239D01*
X85451554Y-64659239D01*
X85887628Y-64950615D01*
X85935439Y-64960125D01*
X85844234Y-64987461D01*
X85438659Y-65318054D01*
X85190469Y-65778689D01*
X85179733Y-65838910D01*
X85303075Y-66045239D01*
X86895449Y-66045239D01*
X86895449Y-66025239D01*
X87149449Y-66025239D01*
X87149449Y-66045239D01*
X87169449Y-66045239D01*
X87169449Y-66299239D01*
X87149449Y-66299239D01*
X87149449Y-66319239D01*
X86895449Y-66319239D01*
X86895449Y-66299239D01*
X85303075Y-66299239D01*
X85179733Y-66505568D01*
X85190469Y-66565789D01*
X85438659Y-67026424D01*
X85844234Y-67357017D01*
X85935439Y-67384353D01*
X85887628Y-67393863D01*
X85451554Y-67685239D01*
X84381092Y-67685239D01*
X84381273Y-67477752D01*
X84141695Y-66897928D01*
X83698465Y-66453924D01*
X83119061Y-66213335D01*
X82491692Y-66212787D01*
X81911868Y-66452365D01*
X81467864Y-66895595D01*
X81227275Y-67474999D01*
X81226727Y-68102368D01*
X81466305Y-68682192D01*
X81754610Y-68971000D01*
X81311750Y-68971000D01*
X81153000Y-69129750D01*
X81153000Y-70104000D01*
X81173000Y-70104000D01*
X81173000Y-70358000D01*
X81153000Y-70358000D01*
X81153000Y-71332250D01*
X81311750Y-71491000D01*
X81754839Y-71491000D01*
X81467864Y-71777475D01*
X81227275Y-72356879D01*
X81226727Y-72984248D01*
X81457598Y-73543000D01*
X81331750Y-73543000D01*
X81173000Y-73701750D01*
X81173000Y-74676000D01*
X81193000Y-74676000D01*
X81193000Y-74930000D01*
X81173000Y-74930000D01*
X81173000Y-75904250D01*
X81331750Y-76063000D01*
X81922309Y-76063000D01*
X82155698Y-75966327D01*
X82231018Y-75891008D01*
X82271863Y-75952137D01*
X82512339Y-76112818D01*
X82796000Y-76169242D01*
X83232188Y-76169242D01*
X79048430Y-80353000D01*
X76592469Y-80353000D01*
X76514027Y-80235603D01*
X76176387Y-80010000D01*
X76514027Y-79784397D01*
X76834200Y-79305223D01*
X76946630Y-78740000D01*
X76834200Y-78174777D01*
X76514027Y-77695603D01*
X76316729Y-77563773D01*
X78791752Y-75088750D01*
X79661000Y-75088750D01*
X79661000Y-75554310D01*
X79757673Y-75787699D01*
X79936302Y-75966327D01*
X80169691Y-76063000D01*
X80760250Y-76063000D01*
X80919000Y-75904250D01*
X80919000Y-74930000D01*
X79819750Y-74930000D01*
X79661000Y-75088750D01*
X78791752Y-75088750D01*
X79331171Y-74549331D01*
X79394858Y-74454016D01*
X79532119Y-74248591D01*
X79571285Y-74051690D01*
X79661000Y-74051690D01*
X79661000Y-74517250D01*
X79819750Y-74676000D01*
X80919000Y-74676000D01*
X80919000Y-73701750D01*
X80760250Y-73543000D01*
X80169691Y-73543000D01*
X79936302Y-73639673D01*
X79757673Y-73818301D01*
X79661000Y-74051690D01*
X79571285Y-74051690D01*
X79602683Y-73893843D01*
X79602683Y-70516750D01*
X79641000Y-70516750D01*
X79641000Y-70982310D01*
X79737673Y-71215699D01*
X79916302Y-71394327D01*
X80149691Y-71491000D01*
X80740250Y-71491000D01*
X80899000Y-71332250D01*
X80899000Y-70358000D01*
X79799750Y-70358000D01*
X79641000Y-70516750D01*
X79602683Y-70516750D01*
X79602683Y-69479690D01*
X79641000Y-69479690D01*
X79641000Y-69945250D01*
X79799750Y-70104000D01*
X80899000Y-70104000D01*
X80899000Y-69129750D01*
X80740250Y-68971000D01*
X80149691Y-68971000D01*
X79916302Y-69067673D01*
X79737673Y-69246301D01*
X79641000Y-69479690D01*
X79602683Y-69479690D01*
X79602683Y-65556399D01*
X80962772Y-64196310D01*
X81030311Y-64095231D01*
X81163720Y-63895570D01*
X81234284Y-63540822D01*
X81234284Y-63516129D01*
X81446000Y-63558242D01*
G36*
X88910690Y-66770000D02*
X89266595Y-66770000D01*
X89185301Y-66803673D01*
X89006673Y-66982302D01*
X88910000Y-67215691D01*
X88910000Y-67806250D01*
X89068750Y-67965000D01*
X90043000Y-67965000D01*
X90043000Y-67945000D01*
X90297000Y-67945000D01*
X90297000Y-67965000D01*
X90317000Y-67965000D01*
X90317000Y-68219000D01*
X90297000Y-68219000D01*
X90297000Y-68239000D01*
X90043000Y-68239000D01*
X90043000Y-68219000D01*
X89068750Y-68219000D01*
X88961419Y-68326331D01*
X88929557Y-68166150D01*
X88620222Y-67703198D01*
X88157270Y-67393863D01*
X88109459Y-67384353D01*
X88200664Y-67357017D01*
X88606239Y-67026424D01*
X88774741Y-66713688D01*
X88910690Y-66770000D01*
X88910690Y-66770000D01*
G37*
X88910690Y-66770000D02*
X89266595Y-66770000D01*
X89185301Y-66803673D01*
X89006673Y-66982302D01*
X88910000Y-67215691D01*
X88910000Y-67806250D01*
X89068750Y-67965000D01*
X90043000Y-67965000D01*
X90043000Y-67945000D01*
X90297000Y-67945000D01*
X90297000Y-67965000D01*
X90317000Y-67965000D01*
X90317000Y-68219000D01*
X90297000Y-68219000D01*
X90297000Y-68239000D01*
X90043000Y-68239000D01*
X90043000Y-68219000D01*
X89068750Y-68219000D01*
X88961419Y-68326331D01*
X88929557Y-68166150D01*
X88620222Y-67703198D01*
X88157270Y-67393863D01*
X88109459Y-67384353D01*
X88200664Y-67357017D01*
X88606239Y-67026424D01*
X88774741Y-66713688D01*
X88910690Y-66770000D01*
G36*
X91637304Y-59438976D02*
X91637304Y-61871636D01*
X91707868Y-62226384D01*
X91766320Y-62313863D01*
X91908816Y-62527124D01*
X92469409Y-63087717D01*
X92770149Y-63288665D01*
X92800484Y-63294699D01*
X92799733Y-63298910D01*
X92923075Y-63505239D01*
X94515449Y-63505239D01*
X94515449Y-63485239D01*
X94769449Y-63485239D01*
X94769449Y-63505239D01*
X94789449Y-63505239D01*
X94789449Y-63759239D01*
X94769449Y-63759239D01*
X94769449Y-63779239D01*
X94515449Y-63779239D01*
X94515449Y-63759239D01*
X92923075Y-63759239D01*
X92799733Y-63965568D01*
X92810469Y-64025789D01*
X93058659Y-64486424D01*
X93464234Y-64817017D01*
X93555439Y-64844353D01*
X93507628Y-64853863D01*
X93044676Y-65163198D01*
X93011605Y-65212693D01*
X92957700Y-65223415D01*
X92624517Y-65446040D01*
X92624515Y-65446043D01*
X91433751Y-66636806D01*
X91255141Y-66904116D01*
X91154699Y-66803673D01*
X90921310Y-66707000D01*
X90565405Y-66707000D01*
X90646699Y-66673327D01*
X90825327Y-66494698D01*
X90922000Y-66261309D01*
X90922000Y-65670750D01*
X90763250Y-65512000D01*
X89789000Y-65512000D01*
X89789000Y-65532000D01*
X89535000Y-65532000D01*
X89535000Y-65512000D01*
X89515000Y-65512000D01*
X89515000Y-65258000D01*
X89535000Y-65258000D01*
X89535000Y-65238000D01*
X89789000Y-65238000D01*
X89789000Y-65258000D01*
X90763250Y-65258000D01*
X90922000Y-65099250D01*
X90922000Y-64508691D01*
X90825327Y-64275302D01*
X90750008Y-64199982D01*
X90811137Y-64159137D01*
X90971818Y-63918661D01*
X91028242Y-63635000D01*
X91028242Y-62135000D01*
X90971818Y-61851339D01*
X90811137Y-61610863D01*
X90689000Y-61529254D01*
X90689000Y-61020062D01*
X90998136Y-60711465D01*
X91238725Y-60132061D01*
X91239273Y-59504692D01*
X90999695Y-58924868D01*
X90556465Y-58480864D01*
X89977061Y-58240275D01*
X89349692Y-58239727D01*
X89004398Y-58382399D01*
X88929557Y-58006150D01*
X88620222Y-57543198D01*
X88229670Y-57282239D01*
X88620222Y-57021280D01*
X88675040Y-56939239D01*
X89137567Y-56939239D01*
X91637304Y-59438976D01*
X91637304Y-59438976D01*
G37*
X91637304Y-59438976D02*
X91637304Y-61871636D01*
X91707868Y-62226384D01*
X91766320Y-62313863D01*
X91908816Y-62527124D01*
X92469409Y-63087717D01*
X92770149Y-63288665D01*
X92800484Y-63294699D01*
X92799733Y-63298910D01*
X92923075Y-63505239D01*
X94515449Y-63505239D01*
X94515449Y-63485239D01*
X94769449Y-63485239D01*
X94769449Y-63505239D01*
X94789449Y-63505239D01*
X94789449Y-63759239D01*
X94769449Y-63759239D01*
X94769449Y-63779239D01*
X94515449Y-63779239D01*
X94515449Y-63759239D01*
X92923075Y-63759239D01*
X92799733Y-63965568D01*
X92810469Y-64025789D01*
X93058659Y-64486424D01*
X93464234Y-64817017D01*
X93555439Y-64844353D01*
X93507628Y-64853863D01*
X93044676Y-65163198D01*
X93011605Y-65212693D01*
X92957700Y-65223415D01*
X92624517Y-65446040D01*
X92624515Y-65446043D01*
X91433751Y-66636806D01*
X91255141Y-66904116D01*
X91154699Y-66803673D01*
X90921310Y-66707000D01*
X90565405Y-66707000D01*
X90646699Y-66673327D01*
X90825327Y-66494698D01*
X90922000Y-66261309D01*
X90922000Y-65670750D01*
X90763250Y-65512000D01*
X89789000Y-65512000D01*
X89789000Y-65532000D01*
X89535000Y-65532000D01*
X89535000Y-65512000D01*
X89515000Y-65512000D01*
X89515000Y-65258000D01*
X89535000Y-65258000D01*
X89535000Y-65238000D01*
X89789000Y-65238000D01*
X89789000Y-65258000D01*
X90763250Y-65258000D01*
X90922000Y-65099250D01*
X90922000Y-64508691D01*
X90825327Y-64275302D01*
X90750008Y-64199982D01*
X90811137Y-64159137D01*
X90971818Y-63918661D01*
X91028242Y-63635000D01*
X91028242Y-62135000D01*
X90971818Y-61851339D01*
X90811137Y-61610863D01*
X90689000Y-61529254D01*
X90689000Y-61020062D01*
X90998136Y-60711465D01*
X91238725Y-60132061D01*
X91239273Y-59504692D01*
X90999695Y-58924868D01*
X90556465Y-58480864D01*
X89977061Y-58240275D01*
X89349692Y-58239727D01*
X89004398Y-58382399D01*
X88929557Y-58006150D01*
X88620222Y-57543198D01*
X88229670Y-57282239D01*
X88620222Y-57021280D01*
X88675040Y-56939239D01*
X89137567Y-56939239D01*
X91637304Y-59438976D01*
G36*
X84503675Y-49341063D02*
X84896691Y-49419239D01*
X85289707Y-49341063D01*
X85322369Y-49319239D01*
X85369858Y-49319239D01*
X85424676Y-49401280D01*
X85815228Y-49662239D01*
X85424676Y-49923198D01*
X85115341Y-50386150D01*
X85006717Y-50932239D01*
X85115341Y-51478328D01*
X85424676Y-51941280D01*
X85815228Y-52202239D01*
X85424676Y-52463198D01*
X85115341Y-52926150D01*
X85006717Y-53472239D01*
X85115341Y-54018328D01*
X85424676Y-54481280D01*
X85815228Y-54742239D01*
X85424676Y-55003198D01*
X85115341Y-55466150D01*
X85006717Y-56012239D01*
X85115341Y-56558328D01*
X85424676Y-57021280D01*
X85815228Y-57282239D01*
X85424676Y-57543198D01*
X85369858Y-57625239D01*
X85065740Y-57625239D01*
X84877263Y-57436762D01*
X84877263Y-53596466D01*
X84884376Y-53585821D01*
X84993000Y-53039732D01*
X84993000Y-51862268D01*
X84884376Y-51316179D01*
X84575041Y-50853227D01*
X84112089Y-50543892D01*
X83566000Y-50435268D01*
X83223000Y-50503495D01*
X83223000Y-50333906D01*
X84237667Y-49319239D01*
X84471013Y-49319239D01*
X84503675Y-49341063D01*
X84503675Y-49341063D01*
G37*
X84503675Y-49341063D02*
X84896691Y-49419239D01*
X85289707Y-49341063D01*
X85322369Y-49319239D01*
X85369858Y-49319239D01*
X85424676Y-49401280D01*
X85815228Y-49662239D01*
X85424676Y-49923198D01*
X85115341Y-50386150D01*
X85006717Y-50932239D01*
X85115341Y-51478328D01*
X85424676Y-51941280D01*
X85815228Y-52202239D01*
X85424676Y-52463198D01*
X85115341Y-52926150D01*
X85006717Y-53472239D01*
X85115341Y-54018328D01*
X85424676Y-54481280D01*
X85815228Y-54742239D01*
X85424676Y-55003198D01*
X85115341Y-55466150D01*
X85006717Y-56012239D01*
X85115341Y-56558328D01*
X85424676Y-57021280D01*
X85815228Y-57282239D01*
X85424676Y-57543198D01*
X85369858Y-57625239D01*
X85065740Y-57625239D01*
X84877263Y-57436762D01*
X84877263Y-53596466D01*
X84884376Y-53585821D01*
X84993000Y-53039732D01*
X84993000Y-51862268D01*
X84884376Y-51316179D01*
X84575041Y-50853227D01*
X84112089Y-50543892D01*
X83566000Y-50435268D01*
X83223000Y-50503495D01*
X83223000Y-50333906D01*
X84237667Y-49319239D01*
X84471013Y-49319239D01*
X84503675Y-49341063D01*
M02*
