G04 #@! TF.FileFunction,Soldermask,Bot*
%FSLAX46Y46*%
G04 Gerber Fmt 4.6, Leading zero omitted, Abs format (unit mm)*
G04 Created by KiCad (PCBNEW no-bzr-product) date 06/20/16 09:14:02*
%MOMM*%
%LPD*%
G01*
G04 APERTURE LIST*
%ADD10C,0.100000*%
%ADD11O,2.900000X1.800000*%
%ADD12C,2.100000*%
%ADD13O,1.900000X3.400000*%
%ADD14R,2.100000X2.400000*%
%ADD15R,3.900120X2.200860*%
%ADD16R,4.200000X2.700000*%
%ADD17R,9.950000X11.300000*%
%ADD18O,3.400000X1.900000*%
%ADD19C,2.400000*%
%ADD20O,1.900000X2.900000*%
%ADD21R,1.650000X1.900000*%
%ADD22R,4.057600X2.432000*%
%ADD23R,1.416000X2.432000*%
%ADD24O,1.800000X2.900000*%
%ADD25O,2.400000X3.400000*%
%ADD26R,1.900000X1.650000*%
G04 APERTURE END LIST*
D10*
D11*
X87022449Y-48392239D03*
X87022449Y-50932239D03*
X87022449Y-53472239D03*
X87022449Y-56012239D03*
X87022449Y-58552239D03*
X87022449Y-61092239D03*
X87022449Y-63632239D03*
X87022449Y-66172239D03*
X87022449Y-68712239D03*
X87022449Y-71252239D03*
X87022449Y-73792239D03*
X87022449Y-76332239D03*
X87022449Y-78872239D03*
X87022449Y-81412239D03*
X94642449Y-81412239D03*
X94642449Y-78872239D03*
X94642449Y-76332239D03*
X94642449Y-73792239D03*
X94642449Y-71252239D03*
X94642449Y-68712239D03*
X94642449Y-66172239D03*
X94642449Y-63632239D03*
X94642449Y-61092239D03*
X94642449Y-58552239D03*
X94642449Y-56012239D03*
X94642449Y-53472239D03*
X94642449Y-50932239D03*
X94642449Y-48392239D03*
D12*
X82804000Y-67790060D03*
X82804000Y-72671940D03*
D13*
X99568000Y-84347000D03*
X102108000Y-84347000D03*
X99568000Y-81007000D03*
X102108000Y-81007000D03*
X104648000Y-84347000D03*
X104648000Y-81007000D03*
X107188000Y-84347000D03*
X107188000Y-81007000D03*
D14*
X81788000Y-46069000D03*
X81788000Y-42069000D03*
D15*
X117561360Y-40005000D03*
X112562640Y-40005000D03*
D16*
X117856000Y-45339000D03*
X117856000Y-50419000D03*
D17*
X106806000Y-47879000D03*
D18*
X74676000Y-55880000D03*
X74676000Y-58420000D03*
X74676000Y-60960000D03*
X74676000Y-63500000D03*
D19*
X72486000Y-47943000D03*
X78486000Y-47943000D03*
X72486000Y-51943000D03*
X78486000Y-51943000D03*
D20*
X92202000Y-85552000D03*
X92202000Y-88692000D03*
X89662000Y-85552000D03*
X89662000Y-88692000D03*
X87122000Y-85552000D03*
X87122000Y-88692000D03*
D21*
X97282000Y-83927000D03*
X97282000Y-81427000D03*
D18*
X116586000Y-89027000D03*
X116586000Y-86487000D03*
X116586000Y-83947000D03*
X116586000Y-81407000D03*
D21*
X90170000Y-70592000D03*
X90170000Y-68092000D03*
D13*
X95123000Y-44196000D03*
X92583000Y-44196000D03*
X90043000Y-44196000D03*
X87503000Y-44196000D03*
X84963000Y-44196000D03*
D18*
X74676000Y-78740000D03*
X74676000Y-81280000D03*
X74676000Y-83820000D03*
X74676000Y-86360000D03*
X74676000Y-88900000D03*
X116586000Y-66040000D03*
X116586000Y-63500000D03*
X116586000Y-60960000D03*
X116586000Y-58420000D03*
X116586000Y-55880000D03*
D22*
X115570000Y-70231000D03*
D23*
X115570000Y-76835000D03*
X113284000Y-76835000D03*
X117856000Y-76835000D03*
D24*
X81026000Y-52451000D03*
X83566000Y-52451000D03*
D25*
X73406000Y-44323000D03*
X75946000Y-44323000D03*
D21*
X89662000Y-62885000D03*
X89662000Y-65385000D03*
D14*
X82296000Y-61817000D03*
X82296000Y-57817000D03*
D26*
X83526000Y-70231000D03*
X81026000Y-70231000D03*
X83546000Y-74803000D03*
X81046000Y-74803000D03*
D12*
X97131226Y-68697080D03*
X104229620Y-67142404D03*
X91186000Y-54483000D03*
X89662000Y-59817000D03*
M02*
