M48
;DRILL file {KiCad no-bzr-product} date 06/17/16 19:38:54
;FORMAT={-:-/ absolute / inch / decimal}
FMAT,2
INCH,TZ
T1C0.031
T2C0.032
T3C0.039
%
G90
G05
M72
T1
X3.1Y-2.045
X3.2Y-2.045
X3.5335Y-2.3485
X3.56Y-2.14
X3.5892Y-2.9032
X3.614Y-2.7221
X3.8471Y-2.7239
X3.8848Y-3.0522
X4.005Y-3.105
X4.005Y-3.205
X4.105Y-3.105
X4.105Y-3.205
X4.1182Y-3.5083
X4.205Y-3.105
X4.205Y-3.205
X4.279Y-2.7733
X4.297Y-2.9297
X4.305Y-3.105
X4.305Y-3.205
X4.356Y-3.605
X4.454Y-2.7939
X4.5219Y-2.9274
T2
X4.135Y-2.6139
X4.135Y-2.8061
T3
X2.95Y-2.6925
X2.95Y-2.85
X2.96Y-1.855
X3.Y-2.2
X3.Y-2.3
X3.Y-2.4
X3.Y-2.5
X3.Y-3.1
X3.Y-3.2
X3.Y-3.3
X3.Y-3.4
X3.Y-3.5
X3.06Y-1.855
X3.1862Y-2.6925
X3.1862Y-2.85
X3.31Y-3.38
X3.31Y-3.48
X3.345Y-1.74
X3.41Y-3.38
X3.41Y-3.48
X3.4261Y-1.9052
X3.4261Y-2.0052
X3.4261Y-2.1052
X3.4261Y-2.2052
X3.4261Y-2.3052
X3.4261Y-2.4052
X3.4261Y-2.5052
X3.4261Y-2.6052
X3.4261Y-2.7052
X3.4261Y-2.8052
X3.4261Y-2.9052
X3.4261Y-3.0052
X3.4261Y-3.1052
X3.4261Y-3.2052
X3.445Y-1.74
X3.51Y-3.38
X3.51Y-3.48
X3.545Y-1.74
X3.645Y-1.74
X3.7261Y-1.9052
X3.7261Y-2.0052
X3.7261Y-2.1052
X3.7261Y-2.2052
X3.7261Y-2.3052
X3.7261Y-2.4052
X3.7261Y-2.5052
X3.7261Y-2.6052
X3.7261Y-2.7052
X3.7261Y-2.8052
X3.7261Y-2.9052
X3.7261Y-3.0052
X3.7261Y-3.1052
X3.7261Y-3.2052
X3.745Y-1.74
X4.5Y-2.2
X4.5Y-2.3
X4.5Y-2.4
X4.5Y-2.5
X4.5Y-2.6
X4.5Y-3.2
X4.5Y-3.3
X4.5Y-3.4
X4.5Y-3.5
T0
M30
