G04 #@! TF.FileFunction,Copper,L1,Top,Signal*
%FSLAX46Y46*%
G04 Gerber Fmt 4.6, Leading zero omitted, Abs format (unit mm)*
G04 Created by KiCad (PCBNEW no-bzr-product) date 06/18/16 10:32:15*
%MOMM*%
%LPD*%
G01*
G04 APERTURE LIST*
%ADD10C,0.100000*%
%ADD11C,0.150000*%
%ADD12O,1.500000X3.000000*%
%ADD13O,1.500000X2.500000*%
%ADD14O,3.000000X1.500000*%
%ADD15O,1.400000X2.500000*%
%ADD16C,2.000000*%
%ADD17C,1.700000*%
%ADD18O,2.000000X3.000000*%
%ADD19O,2.500000X1.400000*%
%ADD20C,0.400000*%
G04 APERTURE END LIST*
D10*
D11*
X117856000Y-92837000D02*
X117856000Y-37084000D01*
X115316000Y-92837000D02*
X115316000Y-94107000D01*
X117856000Y-92837000D02*
X115316000Y-92837000D01*
X73406000Y-92837000D02*
X73406000Y-94107000D01*
X72136000Y-92837000D02*
X73406000Y-92837000D01*
X72263000Y-36957000D02*
X72136000Y-92837000D01*
X117856000Y-37084000D02*
X72263000Y-37084000D01*
X73406000Y-94107000D02*
X115316000Y-94107000D01*
D12*
X101727000Y-81807000D03*
X104267000Y-81807000D03*
X101727000Y-78467000D03*
X104267000Y-78467000D03*
X106807000Y-81807000D03*
X106807000Y-78467000D03*
X109347000Y-81807000D03*
X109347000Y-78467000D03*
D13*
X89154000Y-85552000D03*
X89154000Y-88692000D03*
X86614000Y-85552000D03*
X86614000Y-88692000D03*
X84074000Y-85552000D03*
X84074000Y-88692000D03*
D12*
X95123000Y-44196000D03*
X92583000Y-44196000D03*
X90043000Y-44196000D03*
X87503000Y-44196000D03*
X84963000Y-44196000D03*
D14*
X76200000Y-55880000D03*
X76200000Y-58420000D03*
X76200000Y-60960000D03*
X76200000Y-63500000D03*
X76200000Y-78740000D03*
X76200000Y-81280000D03*
X76200000Y-83820000D03*
X76200000Y-86360000D03*
X76200000Y-88900000D03*
X114300000Y-88900000D03*
X114300000Y-86360000D03*
X114300000Y-83820000D03*
X114300000Y-81280000D03*
X114300000Y-66040000D03*
X114300000Y-63500000D03*
X114300000Y-60960000D03*
X114300000Y-58420000D03*
X114300000Y-55880000D03*
D15*
X78740000Y-51943000D03*
X81280000Y-51943000D03*
D16*
X74930000Y-68390000D03*
X80930000Y-68390000D03*
X74930000Y-72390000D03*
X80930000Y-72390000D03*
D17*
X105029000Y-66393060D03*
X105029000Y-71274940D03*
D18*
X75184000Y-47117000D03*
X77724000Y-47117000D03*
D19*
X87022449Y-48392239D03*
X87022449Y-50932239D03*
X87022449Y-53472239D03*
X87022449Y-56012239D03*
X87022449Y-58552239D03*
X87022449Y-61092239D03*
X87022449Y-63632239D03*
X87022449Y-66172239D03*
X87022449Y-68712239D03*
X87022449Y-71252239D03*
X87022449Y-73792239D03*
X87022449Y-76332239D03*
X87022449Y-78872239D03*
X87022449Y-81412239D03*
X94642449Y-81412239D03*
X94642449Y-78872239D03*
X94642449Y-76332239D03*
X94642449Y-73792239D03*
X94642449Y-71252239D03*
X94642449Y-68712239D03*
X94642449Y-66172239D03*
X94642449Y-63632239D03*
X94642449Y-61092239D03*
X94642449Y-58552239D03*
X94642449Y-56012239D03*
X94642449Y-53472239D03*
X94642449Y-50932239D03*
X94642449Y-48392239D03*
D17*
X110641730Y-91565845D03*
X104602700Y-89109730D03*
X108685658Y-70440633D03*
X113131509Y-70965144D03*
X114857267Y-74356388D03*
X109144998Y-74413510D03*
X89751716Y-59651576D03*
X91166027Y-73740735D03*
X98672681Y-77525635D03*
X91796293Y-69140944D03*
X97717380Y-69188167D03*
X90424000Y-54356000D03*
D20*
X109791731Y-90715846D02*
X110641730Y-91565845D01*
X108185615Y-89109730D02*
X109791731Y-90715846D01*
X104602700Y-89109730D02*
X108185615Y-89109730D01*
X109210169Y-70965144D02*
X108685658Y-70440633D01*
X113131509Y-70965144D02*
X109210169Y-70965144D01*
X114800145Y-74413510D02*
X114857267Y-74356388D01*
X109144998Y-74413510D02*
X114800145Y-74413510D01*
X90424000Y-54356000D02*
X90424000Y-58979292D01*
X90424000Y-58979292D02*
X89751716Y-59651576D01*
X91796293Y-73110469D02*
X91166027Y-73740735D01*
X91796293Y-69140944D02*
X91796293Y-73110469D01*
X97717380Y-76570334D02*
X97822682Y-76675636D01*
X97717380Y-69188167D02*
X97717380Y-76570334D01*
X97822682Y-76675636D02*
X98672681Y-77525635D01*
M02*
